G75*
%MOIN*%
%OFA0B0*%
%FSLAX25Y25*%
%IPPOS*%
%LPD*%
%AMOC8*
5,1,8,0,0,1.08239X$1,22.5*
%
%ADD10C,0.00600*%
%ADD11C,0.00500*%
%ADD12C,0.00787*%
D10*
X0459500Y0290833D02*
X0467000Y0290833D01*
X0467002Y0290959D01*
X0467008Y0291084D01*
X0467018Y0291209D01*
X0467032Y0291334D01*
X0467049Y0291459D01*
X0467071Y0291583D01*
X0467096Y0291706D01*
X0467126Y0291828D01*
X0467159Y0291949D01*
X0467196Y0292069D01*
X0467236Y0292188D01*
X0467281Y0292305D01*
X0467329Y0292422D01*
X0467381Y0292536D01*
X0467436Y0292649D01*
X0467495Y0292760D01*
X0467557Y0292869D01*
X0467623Y0292976D01*
X0467692Y0293081D01*
X0467764Y0293184D01*
X0467839Y0293285D01*
X0467918Y0293383D01*
X0468000Y0293478D01*
X0468084Y0293571D01*
X0468172Y0293661D01*
X0468262Y0293749D01*
X0468355Y0293833D01*
X0468450Y0293915D01*
X0468548Y0293994D01*
X0468649Y0294069D01*
X0468752Y0294141D01*
X0468857Y0294210D01*
X0468964Y0294276D01*
X0469073Y0294338D01*
X0469184Y0294397D01*
X0469297Y0294452D01*
X0469411Y0294504D01*
X0469528Y0294552D01*
X0469645Y0294597D01*
X0469764Y0294637D01*
X0469884Y0294674D01*
X0470005Y0294707D01*
X0470127Y0294737D01*
X0470250Y0294762D01*
X0470374Y0294784D01*
X0470499Y0294801D01*
X0470624Y0294815D01*
X0470749Y0294825D01*
X0470874Y0294831D01*
X0471000Y0294833D01*
X0471126Y0294831D01*
X0471251Y0294825D01*
X0471376Y0294815D01*
X0471501Y0294801D01*
X0471626Y0294784D01*
X0471750Y0294762D01*
X0471873Y0294737D01*
X0471995Y0294707D01*
X0472116Y0294674D01*
X0472236Y0294637D01*
X0472355Y0294597D01*
X0472472Y0294552D01*
X0472589Y0294504D01*
X0472703Y0294452D01*
X0472816Y0294397D01*
X0472927Y0294338D01*
X0473036Y0294276D01*
X0473143Y0294210D01*
X0473248Y0294141D01*
X0473351Y0294069D01*
X0473452Y0293994D01*
X0473550Y0293915D01*
X0473645Y0293833D01*
X0473738Y0293749D01*
X0473828Y0293661D01*
X0473916Y0293571D01*
X0474000Y0293478D01*
X0474082Y0293383D01*
X0474161Y0293285D01*
X0474236Y0293184D01*
X0474308Y0293081D01*
X0474377Y0292976D01*
X0474443Y0292869D01*
X0474505Y0292760D01*
X0474564Y0292649D01*
X0474619Y0292536D01*
X0474671Y0292422D01*
X0474719Y0292305D01*
X0474764Y0292188D01*
X0474804Y0292069D01*
X0474841Y0291949D01*
X0474874Y0291828D01*
X0474904Y0291706D01*
X0474929Y0291583D01*
X0474951Y0291459D01*
X0474968Y0291334D01*
X0474982Y0291209D01*
X0474992Y0291084D01*
X0474998Y0290959D01*
X0475000Y0290833D01*
X0482500Y0290833D01*
X0482500Y0320833D01*
X0459500Y0320833D01*
X0459500Y0290833D01*
D11*
X0362811Y0114849D02*
X0339189Y0114849D01*
X0339189Y0086818D01*
X0362811Y0086818D01*
X0362811Y0114849D01*
D12*
X0332102Y0086266D02*
X0332104Y0086305D01*
X0332110Y0086344D01*
X0332120Y0086382D01*
X0332133Y0086419D01*
X0332150Y0086454D01*
X0332170Y0086488D01*
X0332194Y0086519D01*
X0332221Y0086548D01*
X0332250Y0086574D01*
X0332282Y0086597D01*
X0332316Y0086617D01*
X0332352Y0086633D01*
X0332389Y0086645D01*
X0332428Y0086654D01*
X0332467Y0086659D01*
X0332506Y0086660D01*
X0332545Y0086657D01*
X0332584Y0086650D01*
X0332621Y0086639D01*
X0332658Y0086625D01*
X0332693Y0086607D01*
X0332726Y0086586D01*
X0332757Y0086561D01*
X0332785Y0086534D01*
X0332810Y0086504D01*
X0332832Y0086471D01*
X0332851Y0086437D01*
X0332866Y0086401D01*
X0332878Y0086363D01*
X0332886Y0086325D01*
X0332890Y0086286D01*
X0332890Y0086246D01*
X0332886Y0086207D01*
X0332878Y0086169D01*
X0332866Y0086131D01*
X0332851Y0086095D01*
X0332832Y0086061D01*
X0332810Y0086028D01*
X0332785Y0085998D01*
X0332757Y0085971D01*
X0332726Y0085946D01*
X0332693Y0085925D01*
X0332658Y0085907D01*
X0332621Y0085893D01*
X0332584Y0085882D01*
X0332545Y0085875D01*
X0332506Y0085872D01*
X0332467Y0085873D01*
X0332428Y0085878D01*
X0332389Y0085887D01*
X0332352Y0085899D01*
X0332316Y0085915D01*
X0332282Y0085935D01*
X0332250Y0085958D01*
X0332221Y0085984D01*
X0332194Y0086013D01*
X0332170Y0086044D01*
X0332150Y0086078D01*
X0332133Y0086113D01*
X0332120Y0086150D01*
X0332110Y0086188D01*
X0332104Y0086227D01*
X0332102Y0086266D01*
M02*
