%
M48
M72
T01C0.03150
T02C0.03200
T03C0.03937
T04C0.04000
T05C0.05500
T06C0.05906
T07C0.11811
T08C0.16200
%
T01
X131000Y165833
X141000Y165833
X151000Y165833
X161000Y165833
X171000Y165833
X181000Y165833
X201000Y165833
X211000Y165833
X221000Y165833
X231000Y165833
X241000Y165833
X251000Y165833
X261000Y165833
X271000Y165833
X291000Y165833
X301000Y165833
X311000Y165833
X321000Y165833
X331000Y165833
X341000Y165833
X351000Y165833
X361000Y165833
X371000Y185833
X381000Y185833
X381000Y195833
X371000Y195833
X371000Y205833
X381000Y205833
X381000Y215833
X371000Y215833
X371000Y225833
X381000Y225833
X381000Y235833
X371000Y235833
X371000Y245833
X381000Y245833
X381000Y255833
X371000Y255833
X371000Y265833
X381000Y265833
X381000Y275833
X371000Y275833
X371000Y285833
X381000Y285833
X381000Y295833
X371000Y295833
X371000Y305833
X381000Y305833
X381000Y315833
X371000Y315833
X371000Y325833
X381000Y325833
X381000Y335833
X371000Y335833
X371000Y345833
X381000Y345833
X381000Y355833
X371000Y355833
X341000Y355833
X331000Y355833
X321000Y355833
X311000Y355833
X301000Y355833
X291000Y355833
X281000Y355833
X271000Y355833
X251000Y355833
X241000Y355833
X231000Y355833
X221000Y355833
X211000Y355833
X201000Y355833
X191000Y355833
X181000Y355833
X166000Y355833
X156000Y355833
X146000Y355833
X136000Y355833
X126000Y355833
X116000Y355833
X106000Y355833
X96000Y355833
X336000Y110833
X336000Y100833
X336000Y90833
X366000Y90833
X366000Y100833
X366000Y110833
T02
X391000Y110833
X391000Y140833
X316000Y100833
X286000Y100833
X506000Y255833
X536000Y255833
X486000Y295833
X486000Y305833
X486000Y315833
X456000Y315833
X456000Y305833
X456000Y295833
X401000Y415833
X371000Y415833
T03
X265685Y100518
X226315Y100518
X226315Y61148
X265685Y61148
T04
X421000Y175833
X421000Y185833
X421000Y195833
X421000Y205833
X421000Y215833
X451000Y215833
X451000Y205833
X451000Y195833
X451000Y185833
X451000Y175833
X301000Y385833
X291000Y385833
X281000Y385833
X271000Y385833
X206000Y385833
X196000Y385833
X186000Y385833
X176000Y385833
T05
X566000Y327833
X566000Y305833
X566000Y283833
T06
X586000Y375833
X625370Y375833
X540370Y375833
X501000Y375833
X501000Y175833
X540370Y175833
X586000Y175833
X625370Y175833
X186000Y107703
X186000Y68333
X140370Y385833
X101000Y385833
T07
X106000Y65833
X451000Y65833
X656000Y60833
X666000Y405833
X451000Y410833
X211000Y410833
T08
X646000Y305833
M30
