G75*
%MOIN*%
%OFA0B0*%
%FSLAX25Y25*%
%IPPOS*%
%LPD*%
%AMOC8*
5,1,8,0,0,1.08239X$1,22.5*
%
%ADD10C,0.00000*%
%ADD11C,0.05200*%
%ADD12OC8,0.05200*%
%ADD13C,0.08250*%
%ADD14C,0.05150*%
%ADD15R,0.05150X0.05150*%
%ADD16OC8,0.15000*%
%ADD17C,0.06000*%
%ADD18R,0.10000X0.10000*%
%ADD19C,0.05000*%
%ADD20C,0.04000*%
%ADD21C,0.07677*%
%ADD22C,0.10000*%
%ADD23C,0.11811*%
D10*
X0071000Y0050833D02*
X0081000Y0040833D01*
X0671000Y0040833D01*
X0681000Y0050833D01*
X0681000Y0420833D01*
X0671000Y0430833D01*
X0081000Y0430833D01*
X0071000Y0420833D01*
X0071000Y0050833D01*
X0100094Y0065833D02*
X0100096Y0065986D01*
X0100102Y0066140D01*
X0100112Y0066293D01*
X0100126Y0066445D01*
X0100144Y0066598D01*
X0100166Y0066749D01*
X0100191Y0066900D01*
X0100221Y0067051D01*
X0100255Y0067201D01*
X0100292Y0067349D01*
X0100333Y0067497D01*
X0100378Y0067643D01*
X0100427Y0067789D01*
X0100480Y0067933D01*
X0100536Y0068075D01*
X0100596Y0068216D01*
X0100660Y0068356D01*
X0100727Y0068494D01*
X0100798Y0068630D01*
X0100873Y0068764D01*
X0100950Y0068896D01*
X0101032Y0069026D01*
X0101116Y0069154D01*
X0101204Y0069280D01*
X0101295Y0069403D01*
X0101389Y0069524D01*
X0101487Y0069642D01*
X0101587Y0069758D01*
X0101691Y0069871D01*
X0101797Y0069982D01*
X0101906Y0070090D01*
X0102018Y0070195D01*
X0102132Y0070296D01*
X0102250Y0070395D01*
X0102369Y0070491D01*
X0102491Y0070584D01*
X0102616Y0070673D01*
X0102743Y0070760D01*
X0102872Y0070842D01*
X0103003Y0070922D01*
X0103136Y0070998D01*
X0103271Y0071071D01*
X0103408Y0071140D01*
X0103547Y0071205D01*
X0103687Y0071267D01*
X0103829Y0071325D01*
X0103972Y0071380D01*
X0104117Y0071431D01*
X0104263Y0071478D01*
X0104410Y0071521D01*
X0104558Y0071560D01*
X0104707Y0071596D01*
X0104857Y0071627D01*
X0105008Y0071655D01*
X0105159Y0071679D01*
X0105312Y0071699D01*
X0105464Y0071715D01*
X0105617Y0071727D01*
X0105770Y0071735D01*
X0105923Y0071739D01*
X0106077Y0071739D01*
X0106230Y0071735D01*
X0106383Y0071727D01*
X0106536Y0071715D01*
X0106688Y0071699D01*
X0106841Y0071679D01*
X0106992Y0071655D01*
X0107143Y0071627D01*
X0107293Y0071596D01*
X0107442Y0071560D01*
X0107590Y0071521D01*
X0107737Y0071478D01*
X0107883Y0071431D01*
X0108028Y0071380D01*
X0108171Y0071325D01*
X0108313Y0071267D01*
X0108453Y0071205D01*
X0108592Y0071140D01*
X0108729Y0071071D01*
X0108864Y0070998D01*
X0108997Y0070922D01*
X0109128Y0070842D01*
X0109257Y0070760D01*
X0109384Y0070673D01*
X0109509Y0070584D01*
X0109631Y0070491D01*
X0109750Y0070395D01*
X0109868Y0070296D01*
X0109982Y0070195D01*
X0110094Y0070090D01*
X0110203Y0069982D01*
X0110309Y0069871D01*
X0110413Y0069758D01*
X0110513Y0069642D01*
X0110611Y0069524D01*
X0110705Y0069403D01*
X0110796Y0069280D01*
X0110884Y0069154D01*
X0110968Y0069026D01*
X0111050Y0068896D01*
X0111127Y0068764D01*
X0111202Y0068630D01*
X0111273Y0068494D01*
X0111340Y0068356D01*
X0111404Y0068216D01*
X0111464Y0068075D01*
X0111520Y0067933D01*
X0111573Y0067789D01*
X0111622Y0067643D01*
X0111667Y0067497D01*
X0111708Y0067349D01*
X0111745Y0067201D01*
X0111779Y0067051D01*
X0111809Y0066900D01*
X0111834Y0066749D01*
X0111856Y0066598D01*
X0111874Y0066445D01*
X0111888Y0066293D01*
X0111898Y0066140D01*
X0111904Y0065986D01*
X0111906Y0065833D01*
X0111904Y0065680D01*
X0111898Y0065526D01*
X0111888Y0065373D01*
X0111874Y0065221D01*
X0111856Y0065068D01*
X0111834Y0064917D01*
X0111809Y0064766D01*
X0111779Y0064615D01*
X0111745Y0064465D01*
X0111708Y0064317D01*
X0111667Y0064169D01*
X0111622Y0064023D01*
X0111573Y0063877D01*
X0111520Y0063733D01*
X0111464Y0063591D01*
X0111404Y0063450D01*
X0111340Y0063310D01*
X0111273Y0063172D01*
X0111202Y0063036D01*
X0111127Y0062902D01*
X0111050Y0062770D01*
X0110968Y0062640D01*
X0110884Y0062512D01*
X0110796Y0062386D01*
X0110705Y0062263D01*
X0110611Y0062142D01*
X0110513Y0062024D01*
X0110413Y0061908D01*
X0110309Y0061795D01*
X0110203Y0061684D01*
X0110094Y0061576D01*
X0109982Y0061471D01*
X0109868Y0061370D01*
X0109750Y0061271D01*
X0109631Y0061175D01*
X0109509Y0061082D01*
X0109384Y0060993D01*
X0109257Y0060906D01*
X0109128Y0060824D01*
X0108997Y0060744D01*
X0108864Y0060668D01*
X0108729Y0060595D01*
X0108592Y0060526D01*
X0108453Y0060461D01*
X0108313Y0060399D01*
X0108171Y0060341D01*
X0108028Y0060286D01*
X0107883Y0060235D01*
X0107737Y0060188D01*
X0107590Y0060145D01*
X0107442Y0060106D01*
X0107293Y0060070D01*
X0107143Y0060039D01*
X0106992Y0060011D01*
X0106841Y0059987D01*
X0106688Y0059967D01*
X0106536Y0059951D01*
X0106383Y0059939D01*
X0106230Y0059931D01*
X0106077Y0059927D01*
X0105923Y0059927D01*
X0105770Y0059931D01*
X0105617Y0059939D01*
X0105464Y0059951D01*
X0105312Y0059967D01*
X0105159Y0059987D01*
X0105008Y0060011D01*
X0104857Y0060039D01*
X0104707Y0060070D01*
X0104558Y0060106D01*
X0104410Y0060145D01*
X0104263Y0060188D01*
X0104117Y0060235D01*
X0103972Y0060286D01*
X0103829Y0060341D01*
X0103687Y0060399D01*
X0103547Y0060461D01*
X0103408Y0060526D01*
X0103271Y0060595D01*
X0103136Y0060668D01*
X0103003Y0060744D01*
X0102872Y0060824D01*
X0102743Y0060906D01*
X0102616Y0060993D01*
X0102491Y0061082D01*
X0102369Y0061175D01*
X0102250Y0061271D01*
X0102132Y0061370D01*
X0102018Y0061471D01*
X0101906Y0061576D01*
X0101797Y0061684D01*
X0101691Y0061795D01*
X0101587Y0061908D01*
X0101487Y0062024D01*
X0101389Y0062142D01*
X0101295Y0062263D01*
X0101204Y0062386D01*
X0101116Y0062512D01*
X0101032Y0062640D01*
X0100950Y0062770D01*
X0100873Y0062902D01*
X0100798Y0063036D01*
X0100727Y0063172D01*
X0100660Y0063310D01*
X0100596Y0063450D01*
X0100536Y0063591D01*
X0100480Y0063733D01*
X0100427Y0063877D01*
X0100378Y0064023D01*
X0100333Y0064169D01*
X0100292Y0064317D01*
X0100255Y0064465D01*
X0100221Y0064615D01*
X0100191Y0064766D01*
X0100166Y0064917D01*
X0100144Y0065068D01*
X0100126Y0065221D01*
X0100112Y0065373D01*
X0100102Y0065526D01*
X0100096Y0065680D01*
X0100094Y0065833D01*
X0445094Y0065833D02*
X0445096Y0065986D01*
X0445102Y0066140D01*
X0445112Y0066293D01*
X0445126Y0066445D01*
X0445144Y0066598D01*
X0445166Y0066749D01*
X0445191Y0066900D01*
X0445221Y0067051D01*
X0445255Y0067201D01*
X0445292Y0067349D01*
X0445333Y0067497D01*
X0445378Y0067643D01*
X0445427Y0067789D01*
X0445480Y0067933D01*
X0445536Y0068075D01*
X0445596Y0068216D01*
X0445660Y0068356D01*
X0445727Y0068494D01*
X0445798Y0068630D01*
X0445873Y0068764D01*
X0445950Y0068896D01*
X0446032Y0069026D01*
X0446116Y0069154D01*
X0446204Y0069280D01*
X0446295Y0069403D01*
X0446389Y0069524D01*
X0446487Y0069642D01*
X0446587Y0069758D01*
X0446691Y0069871D01*
X0446797Y0069982D01*
X0446906Y0070090D01*
X0447018Y0070195D01*
X0447132Y0070296D01*
X0447250Y0070395D01*
X0447369Y0070491D01*
X0447491Y0070584D01*
X0447616Y0070673D01*
X0447743Y0070760D01*
X0447872Y0070842D01*
X0448003Y0070922D01*
X0448136Y0070998D01*
X0448271Y0071071D01*
X0448408Y0071140D01*
X0448547Y0071205D01*
X0448687Y0071267D01*
X0448829Y0071325D01*
X0448972Y0071380D01*
X0449117Y0071431D01*
X0449263Y0071478D01*
X0449410Y0071521D01*
X0449558Y0071560D01*
X0449707Y0071596D01*
X0449857Y0071627D01*
X0450008Y0071655D01*
X0450159Y0071679D01*
X0450312Y0071699D01*
X0450464Y0071715D01*
X0450617Y0071727D01*
X0450770Y0071735D01*
X0450923Y0071739D01*
X0451077Y0071739D01*
X0451230Y0071735D01*
X0451383Y0071727D01*
X0451536Y0071715D01*
X0451688Y0071699D01*
X0451841Y0071679D01*
X0451992Y0071655D01*
X0452143Y0071627D01*
X0452293Y0071596D01*
X0452442Y0071560D01*
X0452590Y0071521D01*
X0452737Y0071478D01*
X0452883Y0071431D01*
X0453028Y0071380D01*
X0453171Y0071325D01*
X0453313Y0071267D01*
X0453453Y0071205D01*
X0453592Y0071140D01*
X0453729Y0071071D01*
X0453864Y0070998D01*
X0453997Y0070922D01*
X0454128Y0070842D01*
X0454257Y0070760D01*
X0454384Y0070673D01*
X0454509Y0070584D01*
X0454631Y0070491D01*
X0454750Y0070395D01*
X0454868Y0070296D01*
X0454982Y0070195D01*
X0455094Y0070090D01*
X0455203Y0069982D01*
X0455309Y0069871D01*
X0455413Y0069758D01*
X0455513Y0069642D01*
X0455611Y0069524D01*
X0455705Y0069403D01*
X0455796Y0069280D01*
X0455884Y0069154D01*
X0455968Y0069026D01*
X0456050Y0068896D01*
X0456127Y0068764D01*
X0456202Y0068630D01*
X0456273Y0068494D01*
X0456340Y0068356D01*
X0456404Y0068216D01*
X0456464Y0068075D01*
X0456520Y0067933D01*
X0456573Y0067789D01*
X0456622Y0067643D01*
X0456667Y0067497D01*
X0456708Y0067349D01*
X0456745Y0067201D01*
X0456779Y0067051D01*
X0456809Y0066900D01*
X0456834Y0066749D01*
X0456856Y0066598D01*
X0456874Y0066445D01*
X0456888Y0066293D01*
X0456898Y0066140D01*
X0456904Y0065986D01*
X0456906Y0065833D01*
X0456904Y0065680D01*
X0456898Y0065526D01*
X0456888Y0065373D01*
X0456874Y0065221D01*
X0456856Y0065068D01*
X0456834Y0064917D01*
X0456809Y0064766D01*
X0456779Y0064615D01*
X0456745Y0064465D01*
X0456708Y0064317D01*
X0456667Y0064169D01*
X0456622Y0064023D01*
X0456573Y0063877D01*
X0456520Y0063733D01*
X0456464Y0063591D01*
X0456404Y0063450D01*
X0456340Y0063310D01*
X0456273Y0063172D01*
X0456202Y0063036D01*
X0456127Y0062902D01*
X0456050Y0062770D01*
X0455968Y0062640D01*
X0455884Y0062512D01*
X0455796Y0062386D01*
X0455705Y0062263D01*
X0455611Y0062142D01*
X0455513Y0062024D01*
X0455413Y0061908D01*
X0455309Y0061795D01*
X0455203Y0061684D01*
X0455094Y0061576D01*
X0454982Y0061471D01*
X0454868Y0061370D01*
X0454750Y0061271D01*
X0454631Y0061175D01*
X0454509Y0061082D01*
X0454384Y0060993D01*
X0454257Y0060906D01*
X0454128Y0060824D01*
X0453997Y0060744D01*
X0453864Y0060668D01*
X0453729Y0060595D01*
X0453592Y0060526D01*
X0453453Y0060461D01*
X0453313Y0060399D01*
X0453171Y0060341D01*
X0453028Y0060286D01*
X0452883Y0060235D01*
X0452737Y0060188D01*
X0452590Y0060145D01*
X0452442Y0060106D01*
X0452293Y0060070D01*
X0452143Y0060039D01*
X0451992Y0060011D01*
X0451841Y0059987D01*
X0451688Y0059967D01*
X0451536Y0059951D01*
X0451383Y0059939D01*
X0451230Y0059931D01*
X0451077Y0059927D01*
X0450923Y0059927D01*
X0450770Y0059931D01*
X0450617Y0059939D01*
X0450464Y0059951D01*
X0450312Y0059967D01*
X0450159Y0059987D01*
X0450008Y0060011D01*
X0449857Y0060039D01*
X0449707Y0060070D01*
X0449558Y0060106D01*
X0449410Y0060145D01*
X0449263Y0060188D01*
X0449117Y0060235D01*
X0448972Y0060286D01*
X0448829Y0060341D01*
X0448687Y0060399D01*
X0448547Y0060461D01*
X0448408Y0060526D01*
X0448271Y0060595D01*
X0448136Y0060668D01*
X0448003Y0060744D01*
X0447872Y0060824D01*
X0447743Y0060906D01*
X0447616Y0060993D01*
X0447491Y0061082D01*
X0447369Y0061175D01*
X0447250Y0061271D01*
X0447132Y0061370D01*
X0447018Y0061471D01*
X0446906Y0061576D01*
X0446797Y0061684D01*
X0446691Y0061795D01*
X0446587Y0061908D01*
X0446487Y0062024D01*
X0446389Y0062142D01*
X0446295Y0062263D01*
X0446204Y0062386D01*
X0446116Y0062512D01*
X0446032Y0062640D01*
X0445950Y0062770D01*
X0445873Y0062902D01*
X0445798Y0063036D01*
X0445727Y0063172D01*
X0445660Y0063310D01*
X0445596Y0063450D01*
X0445536Y0063591D01*
X0445480Y0063733D01*
X0445427Y0063877D01*
X0445378Y0064023D01*
X0445333Y0064169D01*
X0445292Y0064317D01*
X0445255Y0064465D01*
X0445221Y0064615D01*
X0445191Y0064766D01*
X0445166Y0064917D01*
X0445144Y0065068D01*
X0445126Y0065221D01*
X0445112Y0065373D01*
X0445102Y0065526D01*
X0445096Y0065680D01*
X0445094Y0065833D01*
X0650094Y0060833D02*
X0650096Y0060986D01*
X0650102Y0061140D01*
X0650112Y0061293D01*
X0650126Y0061445D01*
X0650144Y0061598D01*
X0650166Y0061749D01*
X0650191Y0061900D01*
X0650221Y0062051D01*
X0650255Y0062201D01*
X0650292Y0062349D01*
X0650333Y0062497D01*
X0650378Y0062643D01*
X0650427Y0062789D01*
X0650480Y0062933D01*
X0650536Y0063075D01*
X0650596Y0063216D01*
X0650660Y0063356D01*
X0650727Y0063494D01*
X0650798Y0063630D01*
X0650873Y0063764D01*
X0650950Y0063896D01*
X0651032Y0064026D01*
X0651116Y0064154D01*
X0651204Y0064280D01*
X0651295Y0064403D01*
X0651389Y0064524D01*
X0651487Y0064642D01*
X0651587Y0064758D01*
X0651691Y0064871D01*
X0651797Y0064982D01*
X0651906Y0065090D01*
X0652018Y0065195D01*
X0652132Y0065296D01*
X0652250Y0065395D01*
X0652369Y0065491D01*
X0652491Y0065584D01*
X0652616Y0065673D01*
X0652743Y0065760D01*
X0652872Y0065842D01*
X0653003Y0065922D01*
X0653136Y0065998D01*
X0653271Y0066071D01*
X0653408Y0066140D01*
X0653547Y0066205D01*
X0653687Y0066267D01*
X0653829Y0066325D01*
X0653972Y0066380D01*
X0654117Y0066431D01*
X0654263Y0066478D01*
X0654410Y0066521D01*
X0654558Y0066560D01*
X0654707Y0066596D01*
X0654857Y0066627D01*
X0655008Y0066655D01*
X0655159Y0066679D01*
X0655312Y0066699D01*
X0655464Y0066715D01*
X0655617Y0066727D01*
X0655770Y0066735D01*
X0655923Y0066739D01*
X0656077Y0066739D01*
X0656230Y0066735D01*
X0656383Y0066727D01*
X0656536Y0066715D01*
X0656688Y0066699D01*
X0656841Y0066679D01*
X0656992Y0066655D01*
X0657143Y0066627D01*
X0657293Y0066596D01*
X0657442Y0066560D01*
X0657590Y0066521D01*
X0657737Y0066478D01*
X0657883Y0066431D01*
X0658028Y0066380D01*
X0658171Y0066325D01*
X0658313Y0066267D01*
X0658453Y0066205D01*
X0658592Y0066140D01*
X0658729Y0066071D01*
X0658864Y0065998D01*
X0658997Y0065922D01*
X0659128Y0065842D01*
X0659257Y0065760D01*
X0659384Y0065673D01*
X0659509Y0065584D01*
X0659631Y0065491D01*
X0659750Y0065395D01*
X0659868Y0065296D01*
X0659982Y0065195D01*
X0660094Y0065090D01*
X0660203Y0064982D01*
X0660309Y0064871D01*
X0660413Y0064758D01*
X0660513Y0064642D01*
X0660611Y0064524D01*
X0660705Y0064403D01*
X0660796Y0064280D01*
X0660884Y0064154D01*
X0660968Y0064026D01*
X0661050Y0063896D01*
X0661127Y0063764D01*
X0661202Y0063630D01*
X0661273Y0063494D01*
X0661340Y0063356D01*
X0661404Y0063216D01*
X0661464Y0063075D01*
X0661520Y0062933D01*
X0661573Y0062789D01*
X0661622Y0062643D01*
X0661667Y0062497D01*
X0661708Y0062349D01*
X0661745Y0062201D01*
X0661779Y0062051D01*
X0661809Y0061900D01*
X0661834Y0061749D01*
X0661856Y0061598D01*
X0661874Y0061445D01*
X0661888Y0061293D01*
X0661898Y0061140D01*
X0661904Y0060986D01*
X0661906Y0060833D01*
X0661904Y0060680D01*
X0661898Y0060526D01*
X0661888Y0060373D01*
X0661874Y0060221D01*
X0661856Y0060068D01*
X0661834Y0059917D01*
X0661809Y0059766D01*
X0661779Y0059615D01*
X0661745Y0059465D01*
X0661708Y0059317D01*
X0661667Y0059169D01*
X0661622Y0059023D01*
X0661573Y0058877D01*
X0661520Y0058733D01*
X0661464Y0058591D01*
X0661404Y0058450D01*
X0661340Y0058310D01*
X0661273Y0058172D01*
X0661202Y0058036D01*
X0661127Y0057902D01*
X0661050Y0057770D01*
X0660968Y0057640D01*
X0660884Y0057512D01*
X0660796Y0057386D01*
X0660705Y0057263D01*
X0660611Y0057142D01*
X0660513Y0057024D01*
X0660413Y0056908D01*
X0660309Y0056795D01*
X0660203Y0056684D01*
X0660094Y0056576D01*
X0659982Y0056471D01*
X0659868Y0056370D01*
X0659750Y0056271D01*
X0659631Y0056175D01*
X0659509Y0056082D01*
X0659384Y0055993D01*
X0659257Y0055906D01*
X0659128Y0055824D01*
X0658997Y0055744D01*
X0658864Y0055668D01*
X0658729Y0055595D01*
X0658592Y0055526D01*
X0658453Y0055461D01*
X0658313Y0055399D01*
X0658171Y0055341D01*
X0658028Y0055286D01*
X0657883Y0055235D01*
X0657737Y0055188D01*
X0657590Y0055145D01*
X0657442Y0055106D01*
X0657293Y0055070D01*
X0657143Y0055039D01*
X0656992Y0055011D01*
X0656841Y0054987D01*
X0656688Y0054967D01*
X0656536Y0054951D01*
X0656383Y0054939D01*
X0656230Y0054931D01*
X0656077Y0054927D01*
X0655923Y0054927D01*
X0655770Y0054931D01*
X0655617Y0054939D01*
X0655464Y0054951D01*
X0655312Y0054967D01*
X0655159Y0054987D01*
X0655008Y0055011D01*
X0654857Y0055039D01*
X0654707Y0055070D01*
X0654558Y0055106D01*
X0654410Y0055145D01*
X0654263Y0055188D01*
X0654117Y0055235D01*
X0653972Y0055286D01*
X0653829Y0055341D01*
X0653687Y0055399D01*
X0653547Y0055461D01*
X0653408Y0055526D01*
X0653271Y0055595D01*
X0653136Y0055668D01*
X0653003Y0055744D01*
X0652872Y0055824D01*
X0652743Y0055906D01*
X0652616Y0055993D01*
X0652491Y0056082D01*
X0652369Y0056175D01*
X0652250Y0056271D01*
X0652132Y0056370D01*
X0652018Y0056471D01*
X0651906Y0056576D01*
X0651797Y0056684D01*
X0651691Y0056795D01*
X0651587Y0056908D01*
X0651487Y0057024D01*
X0651389Y0057142D01*
X0651295Y0057263D01*
X0651204Y0057386D01*
X0651116Y0057512D01*
X0651032Y0057640D01*
X0650950Y0057770D01*
X0650873Y0057902D01*
X0650798Y0058036D01*
X0650727Y0058172D01*
X0650660Y0058310D01*
X0650596Y0058450D01*
X0650536Y0058591D01*
X0650480Y0058733D01*
X0650427Y0058877D01*
X0650378Y0059023D01*
X0650333Y0059169D01*
X0650292Y0059317D01*
X0650255Y0059465D01*
X0650221Y0059615D01*
X0650191Y0059766D01*
X0650166Y0059917D01*
X0650144Y0060068D01*
X0650126Y0060221D01*
X0650112Y0060373D01*
X0650102Y0060526D01*
X0650096Y0060680D01*
X0650094Y0060833D01*
X0637900Y0305833D02*
X0637902Y0306032D01*
X0637910Y0306230D01*
X0637922Y0306429D01*
X0637939Y0306627D01*
X0637961Y0306825D01*
X0637988Y0307022D01*
X0638019Y0307218D01*
X0638056Y0307413D01*
X0638097Y0307608D01*
X0638143Y0307801D01*
X0638193Y0307993D01*
X0638249Y0308184D01*
X0638309Y0308374D01*
X0638373Y0308562D01*
X0638443Y0308748D01*
X0638517Y0308933D01*
X0638595Y0309115D01*
X0638678Y0309296D01*
X0638765Y0309475D01*
X0638856Y0309651D01*
X0638952Y0309825D01*
X0639052Y0309997D01*
X0639157Y0310166D01*
X0639265Y0310333D01*
X0639378Y0310497D01*
X0639494Y0310658D01*
X0639614Y0310816D01*
X0639739Y0310972D01*
X0639867Y0311124D01*
X0639998Y0311273D01*
X0640134Y0311418D01*
X0640272Y0311561D01*
X0640415Y0311699D01*
X0640560Y0311835D01*
X0640709Y0311966D01*
X0640861Y0312094D01*
X0641017Y0312219D01*
X0641175Y0312339D01*
X0641336Y0312455D01*
X0641500Y0312568D01*
X0641667Y0312676D01*
X0641836Y0312781D01*
X0642008Y0312881D01*
X0642182Y0312977D01*
X0642358Y0313068D01*
X0642537Y0313155D01*
X0642718Y0313238D01*
X0642900Y0313316D01*
X0643085Y0313390D01*
X0643271Y0313460D01*
X0643459Y0313524D01*
X0643649Y0313584D01*
X0643840Y0313640D01*
X0644032Y0313690D01*
X0644225Y0313736D01*
X0644420Y0313777D01*
X0644615Y0313814D01*
X0644811Y0313845D01*
X0645008Y0313872D01*
X0645206Y0313894D01*
X0645404Y0313911D01*
X0645603Y0313923D01*
X0645801Y0313931D01*
X0646000Y0313933D01*
X0646199Y0313931D01*
X0646397Y0313923D01*
X0646596Y0313911D01*
X0646794Y0313894D01*
X0646992Y0313872D01*
X0647189Y0313845D01*
X0647385Y0313814D01*
X0647580Y0313777D01*
X0647775Y0313736D01*
X0647968Y0313690D01*
X0648160Y0313640D01*
X0648351Y0313584D01*
X0648541Y0313524D01*
X0648729Y0313460D01*
X0648915Y0313390D01*
X0649100Y0313316D01*
X0649282Y0313238D01*
X0649463Y0313155D01*
X0649642Y0313068D01*
X0649818Y0312977D01*
X0649992Y0312881D01*
X0650164Y0312781D01*
X0650333Y0312676D01*
X0650500Y0312568D01*
X0650664Y0312455D01*
X0650825Y0312339D01*
X0650983Y0312219D01*
X0651139Y0312094D01*
X0651291Y0311966D01*
X0651440Y0311835D01*
X0651585Y0311699D01*
X0651728Y0311561D01*
X0651866Y0311418D01*
X0652002Y0311273D01*
X0652133Y0311124D01*
X0652261Y0310972D01*
X0652386Y0310816D01*
X0652506Y0310658D01*
X0652622Y0310497D01*
X0652735Y0310333D01*
X0652843Y0310166D01*
X0652948Y0309997D01*
X0653048Y0309825D01*
X0653144Y0309651D01*
X0653235Y0309475D01*
X0653322Y0309296D01*
X0653405Y0309115D01*
X0653483Y0308933D01*
X0653557Y0308748D01*
X0653627Y0308562D01*
X0653691Y0308374D01*
X0653751Y0308184D01*
X0653807Y0307993D01*
X0653857Y0307801D01*
X0653903Y0307608D01*
X0653944Y0307413D01*
X0653981Y0307218D01*
X0654012Y0307022D01*
X0654039Y0306825D01*
X0654061Y0306627D01*
X0654078Y0306429D01*
X0654090Y0306230D01*
X0654098Y0306032D01*
X0654100Y0305833D01*
X0654098Y0305634D01*
X0654090Y0305436D01*
X0654078Y0305237D01*
X0654061Y0305039D01*
X0654039Y0304841D01*
X0654012Y0304644D01*
X0653981Y0304448D01*
X0653944Y0304253D01*
X0653903Y0304058D01*
X0653857Y0303865D01*
X0653807Y0303673D01*
X0653751Y0303482D01*
X0653691Y0303292D01*
X0653627Y0303104D01*
X0653557Y0302918D01*
X0653483Y0302733D01*
X0653405Y0302551D01*
X0653322Y0302370D01*
X0653235Y0302191D01*
X0653144Y0302015D01*
X0653048Y0301841D01*
X0652948Y0301669D01*
X0652843Y0301500D01*
X0652735Y0301333D01*
X0652622Y0301169D01*
X0652506Y0301008D01*
X0652386Y0300850D01*
X0652261Y0300694D01*
X0652133Y0300542D01*
X0652002Y0300393D01*
X0651866Y0300248D01*
X0651728Y0300105D01*
X0651585Y0299967D01*
X0651440Y0299831D01*
X0651291Y0299700D01*
X0651139Y0299572D01*
X0650983Y0299447D01*
X0650825Y0299327D01*
X0650664Y0299211D01*
X0650500Y0299098D01*
X0650333Y0298990D01*
X0650164Y0298885D01*
X0649992Y0298785D01*
X0649818Y0298689D01*
X0649642Y0298598D01*
X0649463Y0298511D01*
X0649282Y0298428D01*
X0649100Y0298350D01*
X0648915Y0298276D01*
X0648729Y0298206D01*
X0648541Y0298142D01*
X0648351Y0298082D01*
X0648160Y0298026D01*
X0647968Y0297976D01*
X0647775Y0297930D01*
X0647580Y0297889D01*
X0647385Y0297852D01*
X0647189Y0297821D01*
X0646992Y0297794D01*
X0646794Y0297772D01*
X0646596Y0297755D01*
X0646397Y0297743D01*
X0646199Y0297735D01*
X0646000Y0297733D01*
X0645801Y0297735D01*
X0645603Y0297743D01*
X0645404Y0297755D01*
X0645206Y0297772D01*
X0645008Y0297794D01*
X0644811Y0297821D01*
X0644615Y0297852D01*
X0644420Y0297889D01*
X0644225Y0297930D01*
X0644032Y0297976D01*
X0643840Y0298026D01*
X0643649Y0298082D01*
X0643459Y0298142D01*
X0643271Y0298206D01*
X0643085Y0298276D01*
X0642900Y0298350D01*
X0642718Y0298428D01*
X0642537Y0298511D01*
X0642358Y0298598D01*
X0642182Y0298689D01*
X0642008Y0298785D01*
X0641836Y0298885D01*
X0641667Y0298990D01*
X0641500Y0299098D01*
X0641336Y0299211D01*
X0641175Y0299327D01*
X0641017Y0299447D01*
X0640861Y0299572D01*
X0640709Y0299700D01*
X0640560Y0299831D01*
X0640415Y0299967D01*
X0640272Y0300105D01*
X0640134Y0300248D01*
X0639998Y0300393D01*
X0639867Y0300542D01*
X0639739Y0300694D01*
X0639614Y0300850D01*
X0639494Y0301008D01*
X0639378Y0301169D01*
X0639265Y0301333D01*
X0639157Y0301500D01*
X0639052Y0301669D01*
X0638952Y0301841D01*
X0638856Y0302015D01*
X0638765Y0302191D01*
X0638678Y0302370D01*
X0638595Y0302551D01*
X0638517Y0302733D01*
X0638443Y0302918D01*
X0638373Y0303104D01*
X0638309Y0303292D01*
X0638249Y0303482D01*
X0638193Y0303673D01*
X0638143Y0303865D01*
X0638097Y0304058D01*
X0638056Y0304253D01*
X0638019Y0304448D01*
X0637988Y0304644D01*
X0637961Y0304841D01*
X0637939Y0305039D01*
X0637922Y0305237D01*
X0637910Y0305436D01*
X0637902Y0305634D01*
X0637900Y0305833D01*
X0660094Y0405833D02*
X0660096Y0405986D01*
X0660102Y0406140D01*
X0660112Y0406293D01*
X0660126Y0406445D01*
X0660144Y0406598D01*
X0660166Y0406749D01*
X0660191Y0406900D01*
X0660221Y0407051D01*
X0660255Y0407201D01*
X0660292Y0407349D01*
X0660333Y0407497D01*
X0660378Y0407643D01*
X0660427Y0407789D01*
X0660480Y0407933D01*
X0660536Y0408075D01*
X0660596Y0408216D01*
X0660660Y0408356D01*
X0660727Y0408494D01*
X0660798Y0408630D01*
X0660873Y0408764D01*
X0660950Y0408896D01*
X0661032Y0409026D01*
X0661116Y0409154D01*
X0661204Y0409280D01*
X0661295Y0409403D01*
X0661389Y0409524D01*
X0661487Y0409642D01*
X0661587Y0409758D01*
X0661691Y0409871D01*
X0661797Y0409982D01*
X0661906Y0410090D01*
X0662018Y0410195D01*
X0662132Y0410296D01*
X0662250Y0410395D01*
X0662369Y0410491D01*
X0662491Y0410584D01*
X0662616Y0410673D01*
X0662743Y0410760D01*
X0662872Y0410842D01*
X0663003Y0410922D01*
X0663136Y0410998D01*
X0663271Y0411071D01*
X0663408Y0411140D01*
X0663547Y0411205D01*
X0663687Y0411267D01*
X0663829Y0411325D01*
X0663972Y0411380D01*
X0664117Y0411431D01*
X0664263Y0411478D01*
X0664410Y0411521D01*
X0664558Y0411560D01*
X0664707Y0411596D01*
X0664857Y0411627D01*
X0665008Y0411655D01*
X0665159Y0411679D01*
X0665312Y0411699D01*
X0665464Y0411715D01*
X0665617Y0411727D01*
X0665770Y0411735D01*
X0665923Y0411739D01*
X0666077Y0411739D01*
X0666230Y0411735D01*
X0666383Y0411727D01*
X0666536Y0411715D01*
X0666688Y0411699D01*
X0666841Y0411679D01*
X0666992Y0411655D01*
X0667143Y0411627D01*
X0667293Y0411596D01*
X0667442Y0411560D01*
X0667590Y0411521D01*
X0667737Y0411478D01*
X0667883Y0411431D01*
X0668028Y0411380D01*
X0668171Y0411325D01*
X0668313Y0411267D01*
X0668453Y0411205D01*
X0668592Y0411140D01*
X0668729Y0411071D01*
X0668864Y0410998D01*
X0668997Y0410922D01*
X0669128Y0410842D01*
X0669257Y0410760D01*
X0669384Y0410673D01*
X0669509Y0410584D01*
X0669631Y0410491D01*
X0669750Y0410395D01*
X0669868Y0410296D01*
X0669982Y0410195D01*
X0670094Y0410090D01*
X0670203Y0409982D01*
X0670309Y0409871D01*
X0670413Y0409758D01*
X0670513Y0409642D01*
X0670611Y0409524D01*
X0670705Y0409403D01*
X0670796Y0409280D01*
X0670884Y0409154D01*
X0670968Y0409026D01*
X0671050Y0408896D01*
X0671127Y0408764D01*
X0671202Y0408630D01*
X0671273Y0408494D01*
X0671340Y0408356D01*
X0671404Y0408216D01*
X0671464Y0408075D01*
X0671520Y0407933D01*
X0671573Y0407789D01*
X0671622Y0407643D01*
X0671667Y0407497D01*
X0671708Y0407349D01*
X0671745Y0407201D01*
X0671779Y0407051D01*
X0671809Y0406900D01*
X0671834Y0406749D01*
X0671856Y0406598D01*
X0671874Y0406445D01*
X0671888Y0406293D01*
X0671898Y0406140D01*
X0671904Y0405986D01*
X0671906Y0405833D01*
X0671904Y0405680D01*
X0671898Y0405526D01*
X0671888Y0405373D01*
X0671874Y0405221D01*
X0671856Y0405068D01*
X0671834Y0404917D01*
X0671809Y0404766D01*
X0671779Y0404615D01*
X0671745Y0404465D01*
X0671708Y0404317D01*
X0671667Y0404169D01*
X0671622Y0404023D01*
X0671573Y0403877D01*
X0671520Y0403733D01*
X0671464Y0403591D01*
X0671404Y0403450D01*
X0671340Y0403310D01*
X0671273Y0403172D01*
X0671202Y0403036D01*
X0671127Y0402902D01*
X0671050Y0402770D01*
X0670968Y0402640D01*
X0670884Y0402512D01*
X0670796Y0402386D01*
X0670705Y0402263D01*
X0670611Y0402142D01*
X0670513Y0402024D01*
X0670413Y0401908D01*
X0670309Y0401795D01*
X0670203Y0401684D01*
X0670094Y0401576D01*
X0669982Y0401471D01*
X0669868Y0401370D01*
X0669750Y0401271D01*
X0669631Y0401175D01*
X0669509Y0401082D01*
X0669384Y0400993D01*
X0669257Y0400906D01*
X0669128Y0400824D01*
X0668997Y0400744D01*
X0668864Y0400668D01*
X0668729Y0400595D01*
X0668592Y0400526D01*
X0668453Y0400461D01*
X0668313Y0400399D01*
X0668171Y0400341D01*
X0668028Y0400286D01*
X0667883Y0400235D01*
X0667737Y0400188D01*
X0667590Y0400145D01*
X0667442Y0400106D01*
X0667293Y0400070D01*
X0667143Y0400039D01*
X0666992Y0400011D01*
X0666841Y0399987D01*
X0666688Y0399967D01*
X0666536Y0399951D01*
X0666383Y0399939D01*
X0666230Y0399931D01*
X0666077Y0399927D01*
X0665923Y0399927D01*
X0665770Y0399931D01*
X0665617Y0399939D01*
X0665464Y0399951D01*
X0665312Y0399967D01*
X0665159Y0399987D01*
X0665008Y0400011D01*
X0664857Y0400039D01*
X0664707Y0400070D01*
X0664558Y0400106D01*
X0664410Y0400145D01*
X0664263Y0400188D01*
X0664117Y0400235D01*
X0663972Y0400286D01*
X0663829Y0400341D01*
X0663687Y0400399D01*
X0663547Y0400461D01*
X0663408Y0400526D01*
X0663271Y0400595D01*
X0663136Y0400668D01*
X0663003Y0400744D01*
X0662872Y0400824D01*
X0662743Y0400906D01*
X0662616Y0400993D01*
X0662491Y0401082D01*
X0662369Y0401175D01*
X0662250Y0401271D01*
X0662132Y0401370D01*
X0662018Y0401471D01*
X0661906Y0401576D01*
X0661797Y0401684D01*
X0661691Y0401795D01*
X0661587Y0401908D01*
X0661487Y0402024D01*
X0661389Y0402142D01*
X0661295Y0402263D01*
X0661204Y0402386D01*
X0661116Y0402512D01*
X0661032Y0402640D01*
X0660950Y0402770D01*
X0660873Y0402902D01*
X0660798Y0403036D01*
X0660727Y0403172D01*
X0660660Y0403310D01*
X0660596Y0403450D01*
X0660536Y0403591D01*
X0660480Y0403733D01*
X0660427Y0403877D01*
X0660378Y0404023D01*
X0660333Y0404169D01*
X0660292Y0404317D01*
X0660255Y0404465D01*
X0660221Y0404615D01*
X0660191Y0404766D01*
X0660166Y0404917D01*
X0660144Y0405068D01*
X0660126Y0405221D01*
X0660112Y0405373D01*
X0660102Y0405526D01*
X0660096Y0405680D01*
X0660094Y0405833D01*
X0445094Y0410833D02*
X0445096Y0410986D01*
X0445102Y0411140D01*
X0445112Y0411293D01*
X0445126Y0411445D01*
X0445144Y0411598D01*
X0445166Y0411749D01*
X0445191Y0411900D01*
X0445221Y0412051D01*
X0445255Y0412201D01*
X0445292Y0412349D01*
X0445333Y0412497D01*
X0445378Y0412643D01*
X0445427Y0412789D01*
X0445480Y0412933D01*
X0445536Y0413075D01*
X0445596Y0413216D01*
X0445660Y0413356D01*
X0445727Y0413494D01*
X0445798Y0413630D01*
X0445873Y0413764D01*
X0445950Y0413896D01*
X0446032Y0414026D01*
X0446116Y0414154D01*
X0446204Y0414280D01*
X0446295Y0414403D01*
X0446389Y0414524D01*
X0446487Y0414642D01*
X0446587Y0414758D01*
X0446691Y0414871D01*
X0446797Y0414982D01*
X0446906Y0415090D01*
X0447018Y0415195D01*
X0447132Y0415296D01*
X0447250Y0415395D01*
X0447369Y0415491D01*
X0447491Y0415584D01*
X0447616Y0415673D01*
X0447743Y0415760D01*
X0447872Y0415842D01*
X0448003Y0415922D01*
X0448136Y0415998D01*
X0448271Y0416071D01*
X0448408Y0416140D01*
X0448547Y0416205D01*
X0448687Y0416267D01*
X0448829Y0416325D01*
X0448972Y0416380D01*
X0449117Y0416431D01*
X0449263Y0416478D01*
X0449410Y0416521D01*
X0449558Y0416560D01*
X0449707Y0416596D01*
X0449857Y0416627D01*
X0450008Y0416655D01*
X0450159Y0416679D01*
X0450312Y0416699D01*
X0450464Y0416715D01*
X0450617Y0416727D01*
X0450770Y0416735D01*
X0450923Y0416739D01*
X0451077Y0416739D01*
X0451230Y0416735D01*
X0451383Y0416727D01*
X0451536Y0416715D01*
X0451688Y0416699D01*
X0451841Y0416679D01*
X0451992Y0416655D01*
X0452143Y0416627D01*
X0452293Y0416596D01*
X0452442Y0416560D01*
X0452590Y0416521D01*
X0452737Y0416478D01*
X0452883Y0416431D01*
X0453028Y0416380D01*
X0453171Y0416325D01*
X0453313Y0416267D01*
X0453453Y0416205D01*
X0453592Y0416140D01*
X0453729Y0416071D01*
X0453864Y0415998D01*
X0453997Y0415922D01*
X0454128Y0415842D01*
X0454257Y0415760D01*
X0454384Y0415673D01*
X0454509Y0415584D01*
X0454631Y0415491D01*
X0454750Y0415395D01*
X0454868Y0415296D01*
X0454982Y0415195D01*
X0455094Y0415090D01*
X0455203Y0414982D01*
X0455309Y0414871D01*
X0455413Y0414758D01*
X0455513Y0414642D01*
X0455611Y0414524D01*
X0455705Y0414403D01*
X0455796Y0414280D01*
X0455884Y0414154D01*
X0455968Y0414026D01*
X0456050Y0413896D01*
X0456127Y0413764D01*
X0456202Y0413630D01*
X0456273Y0413494D01*
X0456340Y0413356D01*
X0456404Y0413216D01*
X0456464Y0413075D01*
X0456520Y0412933D01*
X0456573Y0412789D01*
X0456622Y0412643D01*
X0456667Y0412497D01*
X0456708Y0412349D01*
X0456745Y0412201D01*
X0456779Y0412051D01*
X0456809Y0411900D01*
X0456834Y0411749D01*
X0456856Y0411598D01*
X0456874Y0411445D01*
X0456888Y0411293D01*
X0456898Y0411140D01*
X0456904Y0410986D01*
X0456906Y0410833D01*
X0456904Y0410680D01*
X0456898Y0410526D01*
X0456888Y0410373D01*
X0456874Y0410221D01*
X0456856Y0410068D01*
X0456834Y0409917D01*
X0456809Y0409766D01*
X0456779Y0409615D01*
X0456745Y0409465D01*
X0456708Y0409317D01*
X0456667Y0409169D01*
X0456622Y0409023D01*
X0456573Y0408877D01*
X0456520Y0408733D01*
X0456464Y0408591D01*
X0456404Y0408450D01*
X0456340Y0408310D01*
X0456273Y0408172D01*
X0456202Y0408036D01*
X0456127Y0407902D01*
X0456050Y0407770D01*
X0455968Y0407640D01*
X0455884Y0407512D01*
X0455796Y0407386D01*
X0455705Y0407263D01*
X0455611Y0407142D01*
X0455513Y0407024D01*
X0455413Y0406908D01*
X0455309Y0406795D01*
X0455203Y0406684D01*
X0455094Y0406576D01*
X0454982Y0406471D01*
X0454868Y0406370D01*
X0454750Y0406271D01*
X0454631Y0406175D01*
X0454509Y0406082D01*
X0454384Y0405993D01*
X0454257Y0405906D01*
X0454128Y0405824D01*
X0453997Y0405744D01*
X0453864Y0405668D01*
X0453729Y0405595D01*
X0453592Y0405526D01*
X0453453Y0405461D01*
X0453313Y0405399D01*
X0453171Y0405341D01*
X0453028Y0405286D01*
X0452883Y0405235D01*
X0452737Y0405188D01*
X0452590Y0405145D01*
X0452442Y0405106D01*
X0452293Y0405070D01*
X0452143Y0405039D01*
X0451992Y0405011D01*
X0451841Y0404987D01*
X0451688Y0404967D01*
X0451536Y0404951D01*
X0451383Y0404939D01*
X0451230Y0404931D01*
X0451077Y0404927D01*
X0450923Y0404927D01*
X0450770Y0404931D01*
X0450617Y0404939D01*
X0450464Y0404951D01*
X0450312Y0404967D01*
X0450159Y0404987D01*
X0450008Y0405011D01*
X0449857Y0405039D01*
X0449707Y0405070D01*
X0449558Y0405106D01*
X0449410Y0405145D01*
X0449263Y0405188D01*
X0449117Y0405235D01*
X0448972Y0405286D01*
X0448829Y0405341D01*
X0448687Y0405399D01*
X0448547Y0405461D01*
X0448408Y0405526D01*
X0448271Y0405595D01*
X0448136Y0405668D01*
X0448003Y0405744D01*
X0447872Y0405824D01*
X0447743Y0405906D01*
X0447616Y0405993D01*
X0447491Y0406082D01*
X0447369Y0406175D01*
X0447250Y0406271D01*
X0447132Y0406370D01*
X0447018Y0406471D01*
X0446906Y0406576D01*
X0446797Y0406684D01*
X0446691Y0406795D01*
X0446587Y0406908D01*
X0446487Y0407024D01*
X0446389Y0407142D01*
X0446295Y0407263D01*
X0446204Y0407386D01*
X0446116Y0407512D01*
X0446032Y0407640D01*
X0445950Y0407770D01*
X0445873Y0407902D01*
X0445798Y0408036D01*
X0445727Y0408172D01*
X0445660Y0408310D01*
X0445596Y0408450D01*
X0445536Y0408591D01*
X0445480Y0408733D01*
X0445427Y0408877D01*
X0445378Y0409023D01*
X0445333Y0409169D01*
X0445292Y0409317D01*
X0445255Y0409465D01*
X0445221Y0409615D01*
X0445191Y0409766D01*
X0445166Y0409917D01*
X0445144Y0410068D01*
X0445126Y0410221D01*
X0445112Y0410373D01*
X0445102Y0410526D01*
X0445096Y0410680D01*
X0445094Y0410833D01*
X0205094Y0410833D02*
X0205096Y0410986D01*
X0205102Y0411140D01*
X0205112Y0411293D01*
X0205126Y0411445D01*
X0205144Y0411598D01*
X0205166Y0411749D01*
X0205191Y0411900D01*
X0205221Y0412051D01*
X0205255Y0412201D01*
X0205292Y0412349D01*
X0205333Y0412497D01*
X0205378Y0412643D01*
X0205427Y0412789D01*
X0205480Y0412933D01*
X0205536Y0413075D01*
X0205596Y0413216D01*
X0205660Y0413356D01*
X0205727Y0413494D01*
X0205798Y0413630D01*
X0205873Y0413764D01*
X0205950Y0413896D01*
X0206032Y0414026D01*
X0206116Y0414154D01*
X0206204Y0414280D01*
X0206295Y0414403D01*
X0206389Y0414524D01*
X0206487Y0414642D01*
X0206587Y0414758D01*
X0206691Y0414871D01*
X0206797Y0414982D01*
X0206906Y0415090D01*
X0207018Y0415195D01*
X0207132Y0415296D01*
X0207250Y0415395D01*
X0207369Y0415491D01*
X0207491Y0415584D01*
X0207616Y0415673D01*
X0207743Y0415760D01*
X0207872Y0415842D01*
X0208003Y0415922D01*
X0208136Y0415998D01*
X0208271Y0416071D01*
X0208408Y0416140D01*
X0208547Y0416205D01*
X0208687Y0416267D01*
X0208829Y0416325D01*
X0208972Y0416380D01*
X0209117Y0416431D01*
X0209263Y0416478D01*
X0209410Y0416521D01*
X0209558Y0416560D01*
X0209707Y0416596D01*
X0209857Y0416627D01*
X0210008Y0416655D01*
X0210159Y0416679D01*
X0210312Y0416699D01*
X0210464Y0416715D01*
X0210617Y0416727D01*
X0210770Y0416735D01*
X0210923Y0416739D01*
X0211077Y0416739D01*
X0211230Y0416735D01*
X0211383Y0416727D01*
X0211536Y0416715D01*
X0211688Y0416699D01*
X0211841Y0416679D01*
X0211992Y0416655D01*
X0212143Y0416627D01*
X0212293Y0416596D01*
X0212442Y0416560D01*
X0212590Y0416521D01*
X0212737Y0416478D01*
X0212883Y0416431D01*
X0213028Y0416380D01*
X0213171Y0416325D01*
X0213313Y0416267D01*
X0213453Y0416205D01*
X0213592Y0416140D01*
X0213729Y0416071D01*
X0213864Y0415998D01*
X0213997Y0415922D01*
X0214128Y0415842D01*
X0214257Y0415760D01*
X0214384Y0415673D01*
X0214509Y0415584D01*
X0214631Y0415491D01*
X0214750Y0415395D01*
X0214868Y0415296D01*
X0214982Y0415195D01*
X0215094Y0415090D01*
X0215203Y0414982D01*
X0215309Y0414871D01*
X0215413Y0414758D01*
X0215513Y0414642D01*
X0215611Y0414524D01*
X0215705Y0414403D01*
X0215796Y0414280D01*
X0215884Y0414154D01*
X0215968Y0414026D01*
X0216050Y0413896D01*
X0216127Y0413764D01*
X0216202Y0413630D01*
X0216273Y0413494D01*
X0216340Y0413356D01*
X0216404Y0413216D01*
X0216464Y0413075D01*
X0216520Y0412933D01*
X0216573Y0412789D01*
X0216622Y0412643D01*
X0216667Y0412497D01*
X0216708Y0412349D01*
X0216745Y0412201D01*
X0216779Y0412051D01*
X0216809Y0411900D01*
X0216834Y0411749D01*
X0216856Y0411598D01*
X0216874Y0411445D01*
X0216888Y0411293D01*
X0216898Y0411140D01*
X0216904Y0410986D01*
X0216906Y0410833D01*
X0216904Y0410680D01*
X0216898Y0410526D01*
X0216888Y0410373D01*
X0216874Y0410221D01*
X0216856Y0410068D01*
X0216834Y0409917D01*
X0216809Y0409766D01*
X0216779Y0409615D01*
X0216745Y0409465D01*
X0216708Y0409317D01*
X0216667Y0409169D01*
X0216622Y0409023D01*
X0216573Y0408877D01*
X0216520Y0408733D01*
X0216464Y0408591D01*
X0216404Y0408450D01*
X0216340Y0408310D01*
X0216273Y0408172D01*
X0216202Y0408036D01*
X0216127Y0407902D01*
X0216050Y0407770D01*
X0215968Y0407640D01*
X0215884Y0407512D01*
X0215796Y0407386D01*
X0215705Y0407263D01*
X0215611Y0407142D01*
X0215513Y0407024D01*
X0215413Y0406908D01*
X0215309Y0406795D01*
X0215203Y0406684D01*
X0215094Y0406576D01*
X0214982Y0406471D01*
X0214868Y0406370D01*
X0214750Y0406271D01*
X0214631Y0406175D01*
X0214509Y0406082D01*
X0214384Y0405993D01*
X0214257Y0405906D01*
X0214128Y0405824D01*
X0213997Y0405744D01*
X0213864Y0405668D01*
X0213729Y0405595D01*
X0213592Y0405526D01*
X0213453Y0405461D01*
X0213313Y0405399D01*
X0213171Y0405341D01*
X0213028Y0405286D01*
X0212883Y0405235D01*
X0212737Y0405188D01*
X0212590Y0405145D01*
X0212442Y0405106D01*
X0212293Y0405070D01*
X0212143Y0405039D01*
X0211992Y0405011D01*
X0211841Y0404987D01*
X0211688Y0404967D01*
X0211536Y0404951D01*
X0211383Y0404939D01*
X0211230Y0404931D01*
X0211077Y0404927D01*
X0210923Y0404927D01*
X0210770Y0404931D01*
X0210617Y0404939D01*
X0210464Y0404951D01*
X0210312Y0404967D01*
X0210159Y0404987D01*
X0210008Y0405011D01*
X0209857Y0405039D01*
X0209707Y0405070D01*
X0209558Y0405106D01*
X0209410Y0405145D01*
X0209263Y0405188D01*
X0209117Y0405235D01*
X0208972Y0405286D01*
X0208829Y0405341D01*
X0208687Y0405399D01*
X0208547Y0405461D01*
X0208408Y0405526D01*
X0208271Y0405595D01*
X0208136Y0405668D01*
X0208003Y0405744D01*
X0207872Y0405824D01*
X0207743Y0405906D01*
X0207616Y0405993D01*
X0207491Y0406082D01*
X0207369Y0406175D01*
X0207250Y0406271D01*
X0207132Y0406370D01*
X0207018Y0406471D01*
X0206906Y0406576D01*
X0206797Y0406684D01*
X0206691Y0406795D01*
X0206587Y0406908D01*
X0206487Y0407024D01*
X0206389Y0407142D01*
X0206295Y0407263D01*
X0206204Y0407386D01*
X0206116Y0407512D01*
X0206032Y0407640D01*
X0205950Y0407770D01*
X0205873Y0407902D01*
X0205798Y0408036D01*
X0205727Y0408172D01*
X0205660Y0408310D01*
X0205596Y0408450D01*
X0205536Y0408591D01*
X0205480Y0408733D01*
X0205427Y0408877D01*
X0205378Y0409023D01*
X0205333Y0409169D01*
X0205292Y0409317D01*
X0205255Y0409465D01*
X0205221Y0409615D01*
X0205191Y0409766D01*
X0205166Y0409917D01*
X0205144Y0410068D01*
X0205126Y0410221D01*
X0205112Y0410373D01*
X0205102Y0410526D01*
X0205096Y0410680D01*
X0205094Y0410833D01*
D11*
X0450800Y0315833D02*
X0456000Y0315833D01*
X0456000Y0305833D02*
X0450800Y0305833D01*
X0450800Y0295833D02*
X0456000Y0295833D01*
X0486000Y0295833D02*
X0491200Y0295833D01*
X0491200Y0305833D02*
X0486000Y0305833D01*
X0486000Y0315833D02*
X0491200Y0315833D01*
D12*
X0506000Y0255833D03*
X0536000Y0255833D03*
X0391000Y0140833D03*
X0391000Y0110833D03*
X0316000Y0100833D03*
X0286000Y0100833D03*
X0371000Y0415833D03*
X0401000Y0415833D03*
D13*
X0561875Y0327833D02*
X0570125Y0327833D01*
X0570125Y0305833D02*
X0561875Y0305833D01*
X0561875Y0283833D02*
X0570125Y0283833D01*
D14*
X0381000Y0285833D03*
X0371000Y0285833D03*
X0371000Y0275833D03*
X0381000Y0275833D03*
X0381000Y0265833D03*
X0371000Y0265833D03*
X0371000Y0255833D03*
X0381000Y0255833D03*
X0381000Y0245833D03*
X0371000Y0245833D03*
X0371000Y0235833D03*
X0381000Y0235833D03*
X0381000Y0225833D03*
X0371000Y0225833D03*
X0371000Y0215833D03*
X0381000Y0215833D03*
X0381000Y0205833D03*
X0371000Y0205833D03*
X0371000Y0195833D03*
X0381000Y0195833D03*
X0381000Y0185833D03*
X0371000Y0185833D03*
X0361000Y0165833D03*
X0351000Y0165833D03*
X0341000Y0165833D03*
X0331000Y0165833D03*
X0321000Y0165833D03*
X0311000Y0165833D03*
X0301000Y0165833D03*
X0291000Y0165833D03*
X0271000Y0165833D03*
X0261000Y0165833D03*
X0251000Y0165833D03*
X0241000Y0165833D03*
X0231000Y0165833D03*
X0221000Y0165833D03*
X0211000Y0165833D03*
X0201000Y0165833D03*
X0181000Y0165833D03*
X0171000Y0165833D03*
X0161000Y0165833D03*
X0151000Y0165833D03*
X0141000Y0165833D03*
X0131000Y0165833D03*
X0336000Y0110833D03*
X0336000Y0100833D03*
X0366000Y0100833D03*
X0366000Y0090833D03*
X0366000Y0110833D03*
X0371000Y0295833D03*
X0381000Y0295833D03*
X0381000Y0305833D03*
X0371000Y0305833D03*
X0371000Y0315833D03*
X0381000Y0315833D03*
X0381000Y0325833D03*
X0371000Y0325833D03*
X0371000Y0335833D03*
X0381000Y0335833D03*
X0381000Y0345833D03*
X0371000Y0345833D03*
X0371000Y0355833D03*
X0381000Y0355833D03*
X0341000Y0355833D03*
X0331000Y0355833D03*
X0321000Y0355833D03*
X0311000Y0355833D03*
X0301000Y0355833D03*
X0291000Y0355833D03*
X0281000Y0355833D03*
X0271000Y0355833D03*
X0251000Y0355833D03*
X0241000Y0355833D03*
X0231000Y0355833D03*
X0221000Y0355833D03*
X0211000Y0355833D03*
X0201000Y0355833D03*
X0191000Y0355833D03*
X0181000Y0355833D03*
X0166000Y0355833D03*
X0156000Y0355833D03*
X0146000Y0355833D03*
X0136000Y0355833D03*
X0126000Y0355833D03*
X0116000Y0355833D03*
X0106000Y0355833D03*
X0096000Y0355833D03*
D15*
X0336000Y0090833D03*
D16*
X0186000Y0107703D03*
X0186000Y0068333D03*
X0501000Y0175833D03*
X0540370Y0175833D03*
X0586000Y0175833D03*
X0625370Y0175833D03*
X0625370Y0375833D03*
X0586000Y0375833D03*
X0540370Y0375833D03*
X0501000Y0375833D03*
X0140370Y0385833D03*
X0101000Y0385833D03*
D17*
X0176000Y0388833D02*
X0176000Y0382833D01*
X0186000Y0382833D02*
X0186000Y0388833D01*
X0196000Y0388833D02*
X0196000Y0382833D01*
X0206000Y0382833D02*
X0206000Y0388833D01*
X0271000Y0388833D02*
X0271000Y0382833D01*
X0281000Y0382833D02*
X0281000Y0388833D01*
X0291000Y0388833D02*
X0291000Y0382833D01*
X0301000Y0382833D02*
X0301000Y0388833D01*
X0418000Y0215833D02*
X0424000Y0215833D01*
X0424000Y0205833D02*
X0418000Y0205833D01*
X0418000Y0195833D02*
X0424000Y0195833D01*
X0424000Y0185833D02*
X0418000Y0185833D01*
X0418000Y0175833D02*
X0424000Y0175833D01*
X0448000Y0175833D02*
X0454000Y0175833D01*
X0454000Y0185833D02*
X0448000Y0185833D01*
X0448000Y0195833D02*
X0454000Y0195833D01*
X0454000Y0205833D02*
X0448000Y0205833D01*
X0448000Y0215833D02*
X0454000Y0215833D01*
D18*
X0265685Y0100518D03*
X0226315Y0100518D03*
X0226315Y0061148D03*
X0265685Y0061148D03*
D19*
X0306315Y0061148D01*
X0336000Y0090833D01*
X0344224Y0090818D02*
X0357776Y0090818D01*
X0357776Y0089197D02*
X0357776Y0092469D01*
X0359028Y0095492D01*
X0359369Y0095833D01*
X0359028Y0096175D01*
X0357776Y0099197D01*
X0357776Y0102469D01*
X0359028Y0105492D01*
X0360965Y0107429D01*
X0360804Y0107649D01*
X0360370Y0108501D01*
X0360075Y0109411D01*
X0359925Y0110355D01*
X0359925Y0110833D01*
X0366000Y0110833D01*
X0366000Y0110833D01*
X0359925Y0110833D01*
X0359925Y0111311D01*
X0360075Y0112256D01*
X0360370Y0113165D01*
X0360804Y0114017D01*
X0361366Y0114791D01*
X0362043Y0115467D01*
X0362816Y0116029D01*
X0363668Y0116463D01*
X0364577Y0116759D01*
X0365522Y0116908D01*
X0366000Y0116908D01*
X0366478Y0116908D01*
X0367423Y0116759D01*
X0368332Y0116463D01*
X0368350Y0116454D01*
X0368350Y0120065D01*
X0367956Y0120459D01*
X0366512Y0123946D01*
X0366512Y0127721D01*
X0367956Y0131208D01*
X0370625Y0133877D01*
X0374113Y0135322D01*
X0377887Y0135322D01*
X0381375Y0133877D01*
X0384044Y0131208D01*
X0385488Y0127721D01*
X0385488Y0123946D01*
X0384044Y0120459D01*
X0383650Y0120065D01*
X0383650Y0115150D01*
X0387583Y0119083D01*
X0394417Y0119083D01*
X0399250Y0114250D01*
X0399250Y0107416D01*
X0394417Y0102584D01*
X0393569Y0102584D01*
X0387485Y0096500D01*
X0385333Y0094348D01*
X0382522Y0093184D01*
X0373928Y0093184D01*
X0374224Y0092469D01*
X0374224Y0089197D01*
X0372972Y0086175D01*
X0370659Y0083861D01*
X0367636Y0082609D01*
X0364364Y0082609D01*
X0361341Y0083861D01*
X0359028Y0086175D01*
X0357776Y0089197D01*
X0359382Y0085820D02*
X0343680Y0085820D01*
X0343364Y0085058D02*
X0344224Y0087135D01*
X0344224Y0094532D01*
X0343364Y0096608D01*
X0343214Y0096758D01*
X0344224Y0099197D01*
X0344224Y0102469D01*
X0342972Y0105492D01*
X0342631Y0105833D01*
X0342972Y0106175D01*
X0344224Y0109197D01*
X0344224Y0112469D01*
X0342972Y0115492D01*
X0340659Y0117806D01*
X0337636Y0119058D01*
X0334364Y0119058D01*
X0331341Y0117806D01*
X0329028Y0115492D01*
X0327776Y0112469D01*
X0327776Y0109197D01*
X0328072Y0108483D01*
X0320017Y0108483D01*
X0319417Y0109083D01*
X0312583Y0109083D01*
X0307750Y0104250D01*
X0307750Y0097416D01*
X0312583Y0092584D01*
X0319417Y0092584D01*
X0320017Y0093184D01*
X0326825Y0093184D01*
X0302939Y0069298D01*
X0275495Y0069298D01*
X0275475Y0069349D01*
X0273885Y0070938D01*
X0271809Y0071798D01*
X0259561Y0071798D01*
X0257485Y0070938D01*
X0255896Y0069349D01*
X0255035Y0067272D01*
X0255035Y0055025D01*
X0255896Y0052948D01*
X0257485Y0051359D01*
X0259561Y0050499D01*
X0271809Y0050499D01*
X0273885Y0051359D01*
X0275475Y0052948D01*
X0275495Y0052999D01*
X0307936Y0052999D01*
X0310931Y0054239D01*
X0339301Y0082609D01*
X0339699Y0082609D01*
X0341775Y0083469D01*
X0343364Y0085058D01*
X0337513Y0080821D02*
X0471000Y0080821D01*
X0471000Y0075823D02*
X0458509Y0075823D01*
X0458617Y0075760D02*
X0455788Y0077393D01*
X0452633Y0078239D01*
X0449367Y0078239D01*
X0446212Y0077393D01*
X0443383Y0075760D01*
X0441073Y0073450D01*
X0439440Y0070622D01*
X0438594Y0067467D01*
X0438594Y0064200D01*
X0439440Y0061045D01*
X0441073Y0058216D01*
X0443383Y0055906D01*
X0446212Y0054273D01*
X0449367Y0053428D01*
X0452633Y0053428D01*
X0455788Y0054273D01*
X0458617Y0055906D01*
X0460927Y0058216D01*
X0462560Y0061045D01*
X0463405Y0064200D01*
X0463405Y0067467D01*
X0462560Y0070622D01*
X0460927Y0073450D01*
X0458617Y0075760D01*
X0462443Y0070824D02*
X0471000Y0070824D01*
X0471000Y0065826D02*
X0463405Y0065826D01*
X0462434Y0060827D02*
X0471000Y0060827D01*
X0471000Y0055833D02*
X0462500Y0047333D01*
X0086000Y0047333D01*
X0086000Y0424333D01*
X0356727Y0424333D01*
X0355625Y0423877D01*
X0352956Y0421208D01*
X0351512Y0417721D01*
X0351512Y0413946D01*
X0352956Y0410459D01*
X0355625Y0407790D01*
X0359113Y0406345D01*
X0362887Y0406345D01*
X0366375Y0407790D01*
X0366769Y0408184D01*
X0366983Y0408184D01*
X0367583Y0407584D01*
X0374417Y0407584D01*
X0379250Y0412416D01*
X0379250Y0419250D01*
X0374417Y0424083D01*
X0367583Y0424083D01*
X0366983Y0423483D01*
X0366769Y0423483D01*
X0366375Y0423877D01*
X0365273Y0424333D01*
X0406727Y0424333D01*
X0405881Y0423983D01*
X0404517Y0423983D01*
X0404417Y0424083D01*
X0397583Y0424083D01*
X0392750Y0419250D01*
X0392750Y0412416D01*
X0397583Y0407584D01*
X0404417Y0407584D01*
X0404517Y0407684D01*
X0405881Y0407684D01*
X0409113Y0406345D01*
X0412887Y0406345D01*
X0416375Y0407790D01*
X0419044Y0410459D01*
X0420488Y0413946D01*
X0420488Y0417721D01*
X0419044Y0421208D01*
X0416375Y0423877D01*
X0415273Y0424333D01*
X0457500Y0424333D01*
X0471000Y0410833D01*
X0471000Y0229032D01*
X0467887Y0230322D01*
X0464113Y0230322D01*
X0460625Y0228877D01*
X0457956Y0226208D01*
X0457019Y0223945D01*
X0455721Y0224483D01*
X0446279Y0224483D01*
X0443865Y0223483D01*
X0428135Y0223483D01*
X0425721Y0224483D01*
X0423650Y0224483D01*
X0423650Y0225065D01*
X0424044Y0225459D01*
X0425488Y0228946D01*
X0425488Y0232721D01*
X0424044Y0236208D01*
X0421375Y0238877D01*
X0417887Y0240322D01*
X0414113Y0240322D01*
X0410625Y0238877D01*
X0408650Y0236901D01*
X0408650Y0282355D01*
X0407485Y0285166D01*
X0392485Y0300166D01*
X0390333Y0302318D01*
X0388722Y0302986D01*
X0389224Y0304197D01*
X0389224Y0307469D01*
X0387972Y0310492D01*
X0387631Y0310833D01*
X0387972Y0311175D01*
X0389224Y0314197D01*
X0389224Y0317469D01*
X0387972Y0320492D01*
X0387631Y0320833D01*
X0387972Y0321175D01*
X0389224Y0324197D01*
X0389224Y0327469D01*
X0387972Y0330492D01*
X0387631Y0330833D01*
X0387972Y0331175D01*
X0389224Y0334197D01*
X0389224Y0337469D01*
X0387972Y0340492D01*
X0387631Y0340833D01*
X0387972Y0341175D01*
X0389224Y0344197D01*
X0389224Y0347469D01*
X0387972Y0350492D01*
X0387631Y0350833D01*
X0387972Y0351175D01*
X0389224Y0354197D01*
X0389224Y0357469D01*
X0387972Y0360492D01*
X0385659Y0362806D01*
X0382636Y0364058D01*
X0379364Y0364058D01*
X0376341Y0362806D01*
X0374404Y0360869D01*
X0374184Y0361029D01*
X0373332Y0361463D01*
X0372665Y0361680D01*
X0377330Y0366345D01*
X0377887Y0366345D01*
X0381375Y0367790D01*
X0384044Y0370459D01*
X0385488Y0373946D01*
X0385488Y0377721D01*
X0384044Y0381208D01*
X0381375Y0383877D01*
X0377887Y0385322D01*
X0374113Y0385322D01*
X0370625Y0383877D01*
X0367956Y0381208D01*
X0366512Y0377721D01*
X0366512Y0377163D01*
X0349515Y0360166D01*
X0348811Y0358467D01*
X0347972Y0360492D01*
X0345659Y0362806D01*
X0342636Y0364058D01*
X0339364Y0364058D01*
X0336341Y0362806D01*
X0336000Y0362464D01*
X0335659Y0362806D01*
X0332636Y0364058D01*
X0329364Y0364058D01*
X0326341Y0362806D01*
X0326000Y0362464D01*
X0325659Y0362806D01*
X0322636Y0364058D01*
X0320043Y0364058D01*
X0337330Y0381345D01*
X0337887Y0381345D01*
X0341375Y0382790D01*
X0344044Y0385459D01*
X0345488Y0388946D01*
X0345488Y0392721D01*
X0344044Y0396208D01*
X0341375Y0398877D01*
X0337887Y0400322D01*
X0334113Y0400322D01*
X0330625Y0398877D01*
X0327956Y0396208D01*
X0326512Y0392721D01*
X0326512Y0392163D01*
X0307831Y0373483D01*
X0299478Y0373483D01*
X0296667Y0372318D01*
X0294515Y0370166D01*
X0293350Y0367355D01*
X0293350Y0363762D01*
X0292636Y0364058D01*
X0289364Y0364058D01*
X0288650Y0363762D01*
X0288650Y0376771D01*
X0288906Y0376665D01*
X0289729Y0376445D01*
X0290574Y0376333D01*
X0291000Y0376333D01*
X0291426Y0376333D01*
X0292271Y0376445D01*
X0293094Y0376665D01*
X0293881Y0376991D01*
X0294343Y0377258D01*
X0296100Y0375501D01*
X0299279Y0374184D01*
X0302721Y0374184D01*
X0305900Y0375501D01*
X0308333Y0377934D01*
X0309650Y0381113D01*
X0309650Y0390554D01*
X0308650Y0392968D01*
X0308650Y0397355D01*
X0307485Y0400166D01*
X0305333Y0402318D01*
X0300333Y0407318D01*
X0297522Y0408483D01*
X0259478Y0408483D01*
X0256667Y0407318D01*
X0254515Y0405166D01*
X0249515Y0400166D01*
X0248350Y0397355D01*
X0248350Y0379312D01*
X0249515Y0376500D01*
X0251667Y0374348D01*
X0253350Y0372665D01*
X0253350Y0363762D01*
X0252636Y0364058D01*
X0249364Y0364058D01*
X0246341Y0362806D01*
X0246000Y0362464D01*
X0245659Y0362806D01*
X0242636Y0364058D01*
X0239364Y0364058D01*
X0236341Y0362806D01*
X0236000Y0362464D01*
X0235659Y0362806D01*
X0232636Y0364058D01*
X0229364Y0364058D01*
X0228650Y0363762D01*
X0228650Y0385065D01*
X0229044Y0385459D01*
X0230488Y0388946D01*
X0230488Y0392721D01*
X0229044Y0396208D01*
X0226375Y0398877D01*
X0222887Y0400322D01*
X0219113Y0400322D01*
X0215625Y0398877D01*
X0212956Y0396208D01*
X0212342Y0394724D01*
X0210900Y0396166D01*
X0207721Y0397483D01*
X0204279Y0397483D01*
X0201100Y0396166D01*
X0201000Y0396066D01*
X0200900Y0396166D01*
X0197721Y0397483D01*
X0197065Y0397483D01*
X0197555Y0399312D01*
X0197555Y0407355D01*
X0196768Y0410293D01*
X0195246Y0412928D01*
X0193095Y0415080D01*
X0188095Y0420080D01*
X0185460Y0421601D01*
X0182521Y0422388D01*
X0163849Y0422388D01*
X0160910Y0421601D01*
X0158275Y0420080D01*
X0156124Y0417928D01*
X0137178Y0398983D01*
X0134923Y0398983D01*
X0127220Y0391280D01*
X0127220Y0380387D01*
X0134923Y0372684D01*
X0145817Y0372684D01*
X0153520Y0380387D01*
X0153520Y0382642D01*
X0170156Y0399278D01*
X0174454Y0399278D01*
X0175232Y0396373D01*
X0175350Y0396169D01*
X0175350Y0395304D01*
X0174729Y0395222D01*
X0173906Y0395002D01*
X0173119Y0394676D01*
X0172381Y0394249D01*
X0171705Y0393731D01*
X0171103Y0393128D01*
X0170584Y0392452D01*
X0170158Y0391714D01*
X0169832Y0390927D01*
X0169611Y0390104D01*
X0169500Y0389259D01*
X0169500Y0385833D01*
X0169500Y0382407D01*
X0169611Y0381563D01*
X0169832Y0380739D01*
X0170158Y0379952D01*
X0170584Y0379214D01*
X0171103Y0378538D01*
X0171705Y0377936D01*
X0172381Y0377417D01*
X0173119Y0376991D01*
X0173906Y0376665D01*
X0174729Y0376445D01*
X0175574Y0376333D01*
X0176000Y0376333D01*
X0176426Y0376333D01*
X0177271Y0376445D01*
X0178094Y0376665D01*
X0178881Y0376991D01*
X0179343Y0377258D01*
X0181100Y0375501D01*
X0184279Y0374184D01*
X0187721Y0374184D01*
X0190900Y0375501D01*
X0191000Y0375601D01*
X0191100Y0375501D01*
X0194279Y0374184D01*
X0197721Y0374184D01*
X0197850Y0374238D01*
X0197850Y0374209D01*
X0196384Y0372742D01*
X0194091Y0370450D01*
X0192850Y0367454D01*
X0192850Y0363969D01*
X0192636Y0364058D01*
X0189364Y0364058D01*
X0186341Y0362806D01*
X0186000Y0362464D01*
X0185659Y0362806D01*
X0182636Y0364058D01*
X0179364Y0364058D01*
X0176341Y0362806D01*
X0174028Y0360492D01*
X0173500Y0359218D01*
X0172972Y0360492D01*
X0170659Y0362806D01*
X0167636Y0364058D01*
X0164364Y0364058D01*
X0161341Y0362806D01*
X0161000Y0362464D01*
X0160659Y0362806D01*
X0157636Y0364058D01*
X0154364Y0364058D01*
X0151341Y0362806D01*
X0151000Y0362464D01*
X0150659Y0362806D01*
X0147636Y0364058D01*
X0144364Y0364058D01*
X0141341Y0362806D01*
X0141000Y0362464D01*
X0140659Y0362806D01*
X0137636Y0364058D01*
X0134364Y0364058D01*
X0131341Y0362806D01*
X0131000Y0362464D01*
X0130659Y0362806D01*
X0127636Y0364058D01*
X0124364Y0364058D01*
X0121341Y0362806D01*
X0121000Y0362464D01*
X0120659Y0362806D01*
X0117636Y0364058D01*
X0114364Y0364058D01*
X0111341Y0362806D01*
X0111000Y0362464D01*
X0110659Y0362806D01*
X0107636Y0364058D01*
X0104364Y0364058D01*
X0101341Y0362806D01*
X0101000Y0362464D01*
X0100659Y0362806D01*
X0097636Y0364058D01*
X0094364Y0364058D01*
X0091341Y0362806D01*
X0089028Y0360492D01*
X0087776Y0357469D01*
X0087776Y0354197D01*
X0089028Y0351175D01*
X0091341Y0348861D01*
X0094364Y0347609D01*
X0097636Y0347609D01*
X0100659Y0348861D01*
X0101000Y0349202D01*
X0101341Y0348861D01*
X0104364Y0347609D01*
X0107636Y0347609D01*
X0110659Y0348861D01*
X0111000Y0349202D01*
X0111341Y0348861D01*
X0114364Y0347609D01*
X0117636Y0347609D01*
X0120659Y0348861D01*
X0121000Y0349202D01*
X0121341Y0348861D01*
X0124364Y0347609D01*
X0127636Y0347609D01*
X0130659Y0348861D01*
X0131000Y0349202D01*
X0131341Y0348861D01*
X0134364Y0347609D01*
X0137636Y0347609D01*
X0140659Y0348861D01*
X0141000Y0349202D01*
X0141341Y0348861D01*
X0144364Y0347609D01*
X0147636Y0347609D01*
X0150659Y0348861D01*
X0151000Y0349202D01*
X0151341Y0348861D01*
X0154364Y0347609D01*
X0157636Y0347609D01*
X0160659Y0348861D01*
X0161000Y0349202D01*
X0161341Y0348861D01*
X0164364Y0347609D01*
X0167636Y0347609D01*
X0170659Y0348861D01*
X0172972Y0351175D01*
X0173500Y0352449D01*
X0174028Y0351175D01*
X0176341Y0348861D01*
X0179364Y0347609D01*
X0182636Y0347609D01*
X0185659Y0348861D01*
X0186000Y0349202D01*
X0186341Y0348861D01*
X0189364Y0347609D01*
X0192636Y0347609D01*
X0195659Y0348861D01*
X0196000Y0349202D01*
X0196341Y0348861D01*
X0199364Y0347609D01*
X0202636Y0347609D01*
X0205659Y0348861D01*
X0206000Y0349202D01*
X0206341Y0348861D01*
X0209364Y0347609D01*
X0212636Y0347609D01*
X0215659Y0348861D01*
X0216000Y0349202D01*
X0216341Y0348861D01*
X0219364Y0347609D01*
X0222636Y0347609D01*
X0223350Y0347905D01*
X0223350Y0339002D01*
X0106667Y0222318D01*
X0104515Y0220166D01*
X0103350Y0217355D01*
X0103350Y0146602D01*
X0102956Y0146208D01*
X0101512Y0142721D01*
X0101512Y0138946D01*
X0102956Y0135459D01*
X0105625Y0132790D01*
X0109113Y0131345D01*
X0112887Y0131345D01*
X0116375Y0132790D01*
X0119044Y0135459D01*
X0120488Y0138946D01*
X0120488Y0142721D01*
X0119044Y0146208D01*
X0118650Y0146602D01*
X0118650Y0212665D01*
X0237485Y0331500D01*
X0238650Y0334312D01*
X0238650Y0347905D01*
X0239364Y0347609D01*
X0242636Y0347609D01*
X0245659Y0348861D01*
X0246000Y0349202D01*
X0246341Y0348861D01*
X0249364Y0347609D01*
X0252636Y0347609D01*
X0253350Y0347905D01*
X0253350Y0344002D01*
X0144515Y0235166D01*
X0143350Y0232355D01*
X0143350Y0173762D01*
X0142636Y0174058D01*
X0139364Y0174058D01*
X0136341Y0172806D01*
X0136000Y0172464D01*
X0135659Y0172806D01*
X0132636Y0174058D01*
X0129364Y0174058D01*
X0126341Y0172806D01*
X0124028Y0170492D01*
X0122776Y0167469D01*
X0122776Y0164197D01*
X0124028Y0161175D01*
X0126341Y0158861D01*
X0129364Y0157609D01*
X0132636Y0157609D01*
X0135659Y0158861D01*
X0136000Y0159202D01*
X0136341Y0158861D01*
X0139364Y0157609D01*
X0142636Y0157609D01*
X0143350Y0157905D01*
X0143350Y0156602D01*
X0142956Y0156208D01*
X0141512Y0152721D01*
X0141512Y0148946D01*
X0142956Y0145459D01*
X0145625Y0142790D01*
X0149113Y0141345D01*
X0152887Y0141345D01*
X0156375Y0142790D01*
X0159044Y0145459D01*
X0160488Y0148946D01*
X0160488Y0152721D01*
X0159044Y0156208D01*
X0158650Y0156602D01*
X0158650Y0157905D01*
X0159364Y0157609D01*
X0162636Y0157609D01*
X0165659Y0158861D01*
X0166000Y0159202D01*
X0166341Y0158861D01*
X0169364Y0157609D01*
X0172636Y0157609D01*
X0175659Y0158861D01*
X0176000Y0159202D01*
X0176341Y0158861D01*
X0179364Y0157609D01*
X0182636Y0157609D01*
X0185659Y0158861D01*
X0187972Y0161175D01*
X0189224Y0164197D01*
X0189224Y0167469D01*
X0187972Y0170492D01*
X0185659Y0172806D01*
X0182636Y0174058D01*
X0179364Y0174058D01*
X0176341Y0172806D01*
X0176000Y0172464D01*
X0175659Y0172806D01*
X0172636Y0174058D01*
X0169364Y0174058D01*
X0166341Y0172806D01*
X0166000Y0172464D01*
X0165659Y0172806D01*
X0162636Y0174058D01*
X0159364Y0174058D01*
X0158650Y0173762D01*
X0158650Y0227665D01*
X0265333Y0334348D01*
X0267485Y0336500D01*
X0268650Y0339312D01*
X0268650Y0347905D01*
X0269364Y0347609D01*
X0272636Y0347609D01*
X0275659Y0348861D01*
X0276000Y0349202D01*
X0276341Y0348861D01*
X0279364Y0347609D01*
X0282636Y0347609D01*
X0285659Y0348861D01*
X0286000Y0349202D01*
X0286341Y0348861D01*
X0289364Y0347609D01*
X0292636Y0347609D01*
X0295659Y0348861D01*
X0296000Y0349202D01*
X0296341Y0348861D01*
X0299364Y0347609D01*
X0302636Y0347609D01*
X0305659Y0348861D01*
X0306000Y0349202D01*
X0306341Y0348861D01*
X0309364Y0347609D01*
X0312636Y0347609D01*
X0315659Y0348861D01*
X0316000Y0349202D01*
X0316341Y0348861D01*
X0319364Y0347609D01*
X0322636Y0347609D01*
X0325659Y0348861D01*
X0326000Y0349202D01*
X0326341Y0348861D01*
X0329364Y0347609D01*
X0332636Y0347609D01*
X0335659Y0348861D01*
X0336000Y0349202D01*
X0336341Y0348861D01*
X0339364Y0347609D01*
X0342636Y0347609D01*
X0345659Y0348861D01*
X0347972Y0351175D01*
X0348350Y0352087D01*
X0348350Y0204312D01*
X0349515Y0201500D01*
X0351667Y0199348D01*
X0353102Y0198754D01*
X0351667Y0197318D01*
X0349515Y0195166D01*
X0348350Y0192355D01*
X0348350Y0179312D01*
X0349515Y0176500D01*
X0351957Y0174058D01*
X0349364Y0174058D01*
X0346341Y0172806D01*
X0346000Y0172464D01*
X0345659Y0172806D01*
X0342636Y0174058D01*
X0339364Y0174058D01*
X0336341Y0172806D01*
X0336000Y0172464D01*
X0335659Y0172806D01*
X0332636Y0174058D01*
X0329364Y0174058D01*
X0326341Y0172806D01*
X0326000Y0172464D01*
X0325659Y0172806D01*
X0322636Y0174058D01*
X0319364Y0174058D01*
X0316341Y0172806D01*
X0316000Y0172464D01*
X0315659Y0172806D01*
X0312636Y0174058D01*
X0309364Y0174058D01*
X0306341Y0172806D01*
X0306000Y0172464D01*
X0305659Y0172806D01*
X0302636Y0174058D01*
X0299364Y0174058D01*
X0296341Y0172806D01*
X0296000Y0172464D01*
X0295659Y0172806D01*
X0292636Y0174058D01*
X0289364Y0174058D01*
X0286341Y0172806D01*
X0284028Y0170492D01*
X0282776Y0167469D01*
X0282776Y0164197D01*
X0284028Y0161175D01*
X0286341Y0158861D01*
X0289364Y0157609D01*
X0292636Y0157609D01*
X0295659Y0158861D01*
X0296000Y0159202D01*
X0296341Y0158861D01*
X0299364Y0157609D01*
X0302636Y0157609D01*
X0305659Y0158861D01*
X0306000Y0159202D01*
X0306341Y0158861D01*
X0309364Y0157609D01*
X0312636Y0157609D01*
X0315659Y0158861D01*
X0316000Y0159202D01*
X0316341Y0158861D01*
X0319364Y0157609D01*
X0322636Y0157609D01*
X0325659Y0158861D01*
X0326000Y0159202D01*
X0326341Y0158861D01*
X0329364Y0157609D01*
X0332636Y0157609D01*
X0335659Y0158861D01*
X0336000Y0159202D01*
X0336341Y0158861D01*
X0339364Y0157609D01*
X0342636Y0157609D01*
X0345659Y0158861D01*
X0346000Y0159202D01*
X0346341Y0158861D01*
X0349364Y0157609D01*
X0352636Y0157609D01*
X0355659Y0158861D01*
X0356000Y0159202D01*
X0356341Y0158861D01*
X0359364Y0157609D01*
X0362636Y0157609D01*
X0365659Y0158861D01*
X0367972Y0161175D01*
X0369224Y0164197D01*
X0369224Y0167469D01*
X0368928Y0168184D01*
X0383694Y0168184D01*
X0383350Y0167355D01*
X0383350Y0160130D01*
X0382887Y0160322D01*
X0379113Y0160322D01*
X0375625Y0158877D01*
X0372956Y0156208D01*
X0371512Y0152721D01*
X0371512Y0148946D01*
X0372956Y0145459D01*
X0375625Y0142790D01*
X0379113Y0141345D01*
X0379670Y0141345D01*
X0382750Y0138265D01*
X0382750Y0137416D01*
X0387583Y0132584D01*
X0394417Y0132584D01*
X0399250Y0137416D01*
X0399250Y0144250D01*
X0394742Y0148758D01*
X0397485Y0151500D01*
X0398650Y0154312D01*
X0398650Y0162665D01*
X0411500Y0175515D01*
X0411500Y0175407D01*
X0411611Y0174563D01*
X0411832Y0173739D01*
X0412158Y0172952D01*
X0412584Y0172214D01*
X0413103Y0171538D01*
X0413705Y0170936D01*
X0414381Y0170417D01*
X0415119Y0169991D01*
X0415906Y0169665D01*
X0416729Y0169445D01*
X0417574Y0169333D01*
X0421000Y0169333D01*
X0424426Y0169333D01*
X0425271Y0169445D01*
X0426094Y0169665D01*
X0426881Y0169991D01*
X0427619Y0170417D01*
X0428295Y0170936D01*
X0428897Y0171538D01*
X0429416Y0172214D01*
X0429842Y0172952D01*
X0430168Y0173739D01*
X0430389Y0174563D01*
X0430500Y0175407D01*
X0430500Y0175833D01*
X0421000Y0175833D01*
X0421000Y0169333D01*
X0421000Y0175833D01*
X0421000Y0175833D01*
X0421000Y0175833D01*
X0430500Y0175833D01*
X0430500Y0176259D01*
X0430389Y0177104D01*
X0430168Y0177927D01*
X0430062Y0178184D01*
X0441938Y0178184D01*
X0441832Y0177927D01*
X0441611Y0177104D01*
X0441500Y0176259D01*
X0441500Y0175833D01*
X0441500Y0175407D01*
X0441611Y0174563D01*
X0441832Y0173739D01*
X0442158Y0172952D01*
X0442584Y0172214D01*
X0443103Y0171538D01*
X0443705Y0170936D01*
X0444381Y0170417D01*
X0445119Y0169991D01*
X0445906Y0169665D01*
X0446729Y0169445D01*
X0447574Y0169333D01*
X0451000Y0169333D01*
X0454426Y0169333D01*
X0455271Y0169445D01*
X0456094Y0169665D01*
X0456881Y0169991D01*
X0457619Y0170417D01*
X0458295Y0170936D01*
X0458897Y0171538D01*
X0459416Y0172214D01*
X0459842Y0172952D01*
X0460168Y0173739D01*
X0460389Y0174563D01*
X0460500Y0175407D01*
X0460500Y0175833D01*
X0451000Y0175833D01*
X0451000Y0169333D01*
X0451000Y0175833D01*
X0451000Y0175833D01*
X0451000Y0175833D01*
X0441500Y0175833D01*
X0451000Y0175833D01*
X0451000Y0175833D01*
X0460500Y0175833D01*
X0460500Y0176259D01*
X0460389Y0177104D01*
X0460168Y0177927D01*
X0459842Y0178714D01*
X0459575Y0179176D01*
X0461333Y0180934D01*
X0462650Y0184113D01*
X0462650Y0187554D01*
X0461333Y0190733D01*
X0461232Y0190833D01*
X0461333Y0190934D01*
X0462650Y0194113D01*
X0462650Y0197554D01*
X0462389Y0198184D01*
X0462522Y0198184D01*
X0465333Y0199348D01*
X0470333Y0204348D01*
X0471000Y0205015D01*
X0471000Y0055833D01*
X0470996Y0055829D02*
X0458483Y0055829D01*
X0465997Y0050830D02*
X0272610Y0050830D01*
X0258761Y0050830D02*
X0233239Y0050830D01*
X0232439Y0050499D02*
X0234515Y0051359D01*
X0236104Y0052948D01*
X0236965Y0055025D01*
X0236965Y0067272D01*
X0236104Y0069349D01*
X0234515Y0070938D01*
X0232439Y0071798D01*
X0220191Y0071798D01*
X0218115Y0070938D01*
X0216525Y0069349D01*
X0216374Y0068983D01*
X0199150Y0068983D01*
X0199150Y0073780D01*
X0191447Y0081483D01*
X0180553Y0081483D01*
X0172850Y0073780D01*
X0172850Y0062887D01*
X0180553Y0055184D01*
X0187624Y0055184D01*
X0188884Y0053924D01*
X0191879Y0052684D01*
X0216790Y0052684D01*
X0218115Y0051359D01*
X0220191Y0050499D01*
X0232439Y0050499D01*
X0236965Y0055829D02*
X0255035Y0055829D01*
X0255035Y0060827D02*
X0236965Y0060827D01*
X0236965Y0065826D02*
X0255035Y0065826D01*
X0257371Y0070824D02*
X0234629Y0070824D01*
X0236667Y0074348D02*
X0239478Y0073184D01*
X0277522Y0073184D01*
X0280333Y0074348D01*
X0282485Y0076500D01*
X0282485Y0076500D01*
X0290333Y0084348D01*
X0292485Y0086500D01*
X0293650Y0089312D01*
X0293650Y0096816D01*
X0294250Y0097416D01*
X0294250Y0104250D01*
X0289417Y0109083D01*
X0282583Y0109083D01*
X0277750Y0104250D01*
X0277750Y0097416D01*
X0278350Y0096816D01*
X0278350Y0094002D01*
X0272831Y0088483D01*
X0244169Y0088483D01*
X0236965Y0095687D01*
X0236965Y0106642D01*
X0236326Y0108184D01*
X0252831Y0108184D01*
X0255035Y0105980D01*
X0255035Y0094395D01*
X0255896Y0092318D01*
X0257485Y0090729D01*
X0259561Y0089869D01*
X0271809Y0089869D01*
X0273885Y0090729D01*
X0275475Y0092318D01*
X0276335Y0094395D01*
X0276335Y0106642D01*
X0275475Y0108719D01*
X0273885Y0110308D01*
X0271809Y0111168D01*
X0271484Y0111168D01*
X0260333Y0122318D01*
X0257522Y0123483D01*
X0192608Y0123483D01*
X0189797Y0122318D01*
X0188331Y0120853D01*
X0180553Y0120853D01*
X0172850Y0113150D01*
X0172850Y0102257D01*
X0180553Y0094554D01*
X0191447Y0094554D01*
X0199150Y0102257D01*
X0199150Y0108184D01*
X0216304Y0108184D01*
X0215665Y0106642D01*
X0215665Y0094395D01*
X0216525Y0092318D01*
X0218115Y0090729D01*
X0220191Y0089869D01*
X0221146Y0089869D01*
X0221667Y0089348D01*
X0236667Y0074348D01*
X0235192Y0075823D02*
X0197107Y0075823D01*
X0199150Y0070824D02*
X0218001Y0070824D01*
X0226000Y0060833D02*
X0193500Y0060833D01*
X0186000Y0068333D01*
X0172850Y0070824D02*
X0117443Y0070824D01*
X0117560Y0070622D02*
X0115927Y0073450D01*
X0113617Y0075760D01*
X0110788Y0077393D01*
X0107633Y0078239D01*
X0104367Y0078239D01*
X0101212Y0077393D01*
X0098383Y0075760D01*
X0096073Y0073450D01*
X0094440Y0070622D01*
X0093594Y0067467D01*
X0093594Y0064200D01*
X0094440Y0061045D01*
X0096073Y0058216D01*
X0098383Y0055906D01*
X0101212Y0054273D01*
X0104367Y0053428D01*
X0107633Y0053428D01*
X0110788Y0054273D01*
X0113617Y0055906D01*
X0115927Y0058216D01*
X0117560Y0061045D01*
X0118405Y0064200D01*
X0118405Y0067467D01*
X0117560Y0070622D01*
X0118405Y0065826D02*
X0172850Y0065826D01*
X0174910Y0060827D02*
X0117434Y0060827D01*
X0113483Y0055829D02*
X0179908Y0055829D01*
X0174893Y0075823D02*
X0113509Y0075823D01*
X0098491Y0075823D02*
X0086000Y0075823D01*
X0086000Y0080821D02*
X0179892Y0080821D01*
X0192108Y0080821D02*
X0230194Y0080821D01*
X0225195Y0085820D02*
X0086000Y0085820D01*
X0086000Y0090818D02*
X0218025Y0090818D01*
X0221667Y0089348D02*
X0221667Y0089348D01*
X0215665Y0095817D02*
X0192710Y0095817D01*
X0197708Y0100815D02*
X0215665Y0100815D01*
X0215665Y0105814D02*
X0199150Y0105814D01*
X0179290Y0095817D02*
X0086000Y0095817D01*
X0086000Y0100815D02*
X0174292Y0100815D01*
X0172850Y0105814D02*
X0086000Y0105814D01*
X0086000Y0110812D02*
X0172850Y0110812D01*
X0175511Y0115811D02*
X0086000Y0115811D01*
X0086000Y0120810D02*
X0180510Y0120810D01*
X0159186Y0145802D02*
X0372814Y0145802D01*
X0371512Y0150801D02*
X0160488Y0150801D01*
X0159213Y0155799D02*
X0372787Y0155799D01*
X0367595Y0160798D02*
X0383350Y0160798D01*
X0383350Y0165796D02*
X0369224Y0165796D01*
X0350222Y0175793D02*
X0158650Y0175793D01*
X0158650Y0180792D02*
X0348350Y0180792D01*
X0348350Y0185790D02*
X0158650Y0185790D01*
X0158650Y0190789D02*
X0348350Y0190789D01*
X0350136Y0195787D02*
X0158650Y0195787D01*
X0158650Y0200786D02*
X0350229Y0200786D01*
X0348350Y0205784D02*
X0158650Y0205784D01*
X0158650Y0210783D02*
X0348350Y0210783D01*
X0348350Y0215781D02*
X0158650Y0215781D01*
X0158650Y0220780D02*
X0348350Y0220780D01*
X0348350Y0225778D02*
X0158650Y0225778D01*
X0161762Y0230777D02*
X0348350Y0230777D01*
X0348350Y0235775D02*
X0166760Y0235775D01*
X0171759Y0240774D02*
X0348350Y0240774D01*
X0348350Y0245772D02*
X0176757Y0245772D01*
X0181756Y0250771D02*
X0348350Y0250771D01*
X0348350Y0255769D02*
X0186754Y0255769D01*
X0191753Y0260768D02*
X0348350Y0260768D01*
X0348350Y0265766D02*
X0196751Y0265766D01*
X0201750Y0270765D02*
X0348350Y0270765D01*
X0348350Y0275763D02*
X0206748Y0275763D01*
X0211747Y0280762D02*
X0348350Y0280762D01*
X0348350Y0285760D02*
X0216745Y0285760D01*
X0221744Y0290759D02*
X0348350Y0290759D01*
X0348350Y0295757D02*
X0226742Y0295757D01*
X0231741Y0300756D02*
X0348350Y0300756D01*
X0348350Y0305754D02*
X0236739Y0305754D01*
X0241738Y0310753D02*
X0348350Y0310753D01*
X0348350Y0315751D02*
X0246736Y0315751D01*
X0251735Y0320750D02*
X0348350Y0320750D01*
X0348350Y0325748D02*
X0256733Y0325748D01*
X0261732Y0330747D02*
X0348350Y0330747D01*
X0348350Y0335745D02*
X0266730Y0335745D01*
X0268650Y0340744D02*
X0348350Y0340744D01*
X0348350Y0345743D02*
X0268650Y0345743D01*
X0253350Y0345743D02*
X0238650Y0345743D01*
X0238650Y0340744D02*
X0250093Y0340744D01*
X0245094Y0335745D02*
X0238650Y0335745D01*
X0240095Y0330747D02*
X0236732Y0330747D01*
X0235097Y0325748D02*
X0231733Y0325748D01*
X0230098Y0320750D02*
X0226735Y0320750D01*
X0225100Y0315751D02*
X0221736Y0315751D01*
X0220101Y0310753D02*
X0216738Y0310753D01*
X0215103Y0305754D02*
X0211739Y0305754D01*
X0210104Y0300756D02*
X0206741Y0300756D01*
X0205106Y0295757D02*
X0201742Y0295757D01*
X0200107Y0290759D02*
X0196744Y0290759D01*
X0195109Y0285760D02*
X0191745Y0285760D01*
X0190110Y0280762D02*
X0186747Y0280762D01*
X0185112Y0275763D02*
X0181748Y0275763D01*
X0180113Y0270765D02*
X0176750Y0270765D01*
X0175115Y0265766D02*
X0171751Y0265766D01*
X0170116Y0260768D02*
X0166753Y0260768D01*
X0165118Y0255769D02*
X0161754Y0255769D01*
X0160119Y0250771D02*
X0156756Y0250771D01*
X0155121Y0245772D02*
X0151757Y0245772D01*
X0150122Y0240774D02*
X0146759Y0240774D01*
X0145124Y0235775D02*
X0141760Y0235775D01*
X0143350Y0230777D02*
X0136762Y0230777D01*
X0131763Y0225778D02*
X0143350Y0225778D01*
X0143350Y0220780D02*
X0126765Y0220780D01*
X0121766Y0215781D02*
X0143350Y0215781D01*
X0143350Y0210783D02*
X0118650Y0210783D01*
X0118650Y0205784D02*
X0143350Y0205784D01*
X0143350Y0200786D02*
X0118650Y0200786D01*
X0118650Y0195787D02*
X0143350Y0195787D01*
X0143350Y0190789D02*
X0118650Y0190789D01*
X0118650Y0185790D02*
X0143350Y0185790D01*
X0143350Y0180792D02*
X0118650Y0180792D01*
X0118650Y0175793D02*
X0143350Y0175793D01*
X0124330Y0170795D02*
X0118650Y0170795D01*
X0118650Y0165796D02*
X0122776Y0165796D01*
X0124405Y0160798D02*
X0118650Y0160798D01*
X0118650Y0155799D02*
X0142787Y0155799D01*
X0141512Y0150801D02*
X0118650Y0150801D01*
X0119212Y0145802D02*
X0142814Y0145802D01*
X0120488Y0140804D02*
X0380212Y0140804D01*
X0384362Y0135805D02*
X0119187Y0135805D01*
X0102813Y0135805D02*
X0086000Y0135805D01*
X0086000Y0140804D02*
X0101512Y0140804D01*
X0102788Y0145802D02*
X0086000Y0145802D01*
X0086000Y0150801D02*
X0103350Y0150801D01*
X0103350Y0155799D02*
X0086000Y0155799D01*
X0086000Y0160798D02*
X0103350Y0160798D01*
X0103350Y0165796D02*
X0086000Y0165796D01*
X0086000Y0170795D02*
X0103350Y0170795D01*
X0103350Y0175793D02*
X0086000Y0175793D01*
X0086000Y0180792D02*
X0103350Y0180792D01*
X0103350Y0185790D02*
X0086000Y0185790D01*
X0086000Y0190789D02*
X0103350Y0190789D01*
X0103350Y0195787D02*
X0086000Y0195787D01*
X0086000Y0200786D02*
X0103350Y0200786D01*
X0103350Y0205784D02*
X0086000Y0205784D01*
X0086000Y0210783D02*
X0103350Y0210783D01*
X0103350Y0215781D02*
X0086000Y0215781D01*
X0086000Y0220780D02*
X0105128Y0220780D01*
X0110127Y0225778D02*
X0086000Y0225778D01*
X0086000Y0230777D02*
X0115125Y0230777D01*
X0120124Y0235775D02*
X0086000Y0235775D01*
X0086000Y0240774D02*
X0125122Y0240774D01*
X0130121Y0245772D02*
X0086000Y0245772D01*
X0086000Y0250771D02*
X0135119Y0250771D01*
X0140118Y0255769D02*
X0086000Y0255769D01*
X0086000Y0260768D02*
X0145116Y0260768D01*
X0150115Y0265766D02*
X0086000Y0265766D01*
X0086000Y0270765D02*
X0155113Y0270765D01*
X0160112Y0275763D02*
X0086000Y0275763D01*
X0086000Y0280762D02*
X0165110Y0280762D01*
X0170109Y0285760D02*
X0086000Y0285760D01*
X0086000Y0290759D02*
X0175107Y0290759D01*
X0180106Y0295757D02*
X0086000Y0295757D01*
X0086000Y0300756D02*
X0185104Y0300756D01*
X0190103Y0305754D02*
X0086000Y0305754D01*
X0086000Y0310753D02*
X0195101Y0310753D01*
X0200100Y0315751D02*
X0086000Y0315751D01*
X0086000Y0320750D02*
X0205098Y0320750D01*
X0210097Y0325748D02*
X0086000Y0325748D01*
X0086000Y0330747D02*
X0215095Y0330747D01*
X0220094Y0335745D02*
X0086000Y0335745D01*
X0086000Y0340744D02*
X0223350Y0340744D01*
X0223350Y0345743D02*
X0086000Y0345743D01*
X0086000Y0350741D02*
X0089461Y0350741D01*
X0087776Y0355740D02*
X0086000Y0355740D01*
X0086000Y0360738D02*
X0089274Y0360738D01*
X0086000Y0365737D02*
X0192850Y0365737D01*
X0201000Y0365833D02*
X0201000Y0355833D01*
X0201000Y0365833D02*
X0206000Y0370833D01*
X0206000Y0385833D01*
X0211338Y0395728D02*
X0212757Y0395728D01*
X0212633Y0398428D02*
X0209367Y0398428D01*
X0206212Y0399273D01*
X0203383Y0400906D01*
X0201073Y0403216D01*
X0199440Y0406045D01*
X0198594Y0409200D01*
X0198594Y0412467D01*
X0199440Y0415622D01*
X0201073Y0418450D01*
X0203383Y0420760D01*
X0206212Y0422393D01*
X0209367Y0423239D01*
X0212633Y0423239D01*
X0215788Y0422393D01*
X0218617Y0420760D01*
X0220927Y0418450D01*
X0222560Y0415622D01*
X0223405Y0412467D01*
X0223405Y0409200D01*
X0222560Y0406045D01*
X0220927Y0403216D01*
X0218617Y0400906D01*
X0215788Y0399273D01*
X0212633Y0398428D01*
X0218305Y0400726D02*
X0250075Y0400726D01*
X0248350Y0395728D02*
X0229243Y0395728D01*
X0230488Y0390729D02*
X0248350Y0390729D01*
X0248350Y0385731D02*
X0229156Y0385731D01*
X0228650Y0380732D02*
X0248350Y0380732D01*
X0250282Y0375734D02*
X0228650Y0375734D01*
X0228650Y0370735D02*
X0253350Y0370735D01*
X0251667Y0374348D02*
X0251667Y0374348D01*
X0253350Y0365737D02*
X0228650Y0365737D01*
X0194376Y0370735D02*
X0086000Y0370735D01*
X0086000Y0375734D02*
X0095543Y0375734D01*
X0096444Y0374833D02*
X0090000Y0381277D01*
X0090000Y0385833D01*
X0101000Y0385833D01*
X0101000Y0374833D01*
X0105556Y0374833D01*
X0112000Y0381277D01*
X0112000Y0385833D01*
X0101000Y0385833D01*
X0101000Y0385833D01*
X0101000Y0374833D01*
X0096444Y0374833D01*
X0101000Y0375734D02*
X0101000Y0375734D01*
X0101000Y0380732D02*
X0101000Y0380732D01*
X0101000Y0385731D02*
X0101000Y0385731D01*
X0101000Y0385833D02*
X0101000Y0385833D01*
X0101000Y0385833D01*
X0112000Y0385833D01*
X0112000Y0390390D01*
X0105556Y0396833D01*
X0101000Y0396833D01*
X0101000Y0385833D01*
X0090000Y0385833D01*
X0090000Y0390390D01*
X0096444Y0396833D01*
X0101000Y0396833D01*
X0101000Y0385833D01*
X0101000Y0385833D01*
X0101000Y0390729D02*
X0101000Y0390729D01*
X0101000Y0395728D02*
X0101000Y0395728D01*
X0106662Y0395728D02*
X0131668Y0395728D01*
X0127220Y0390729D02*
X0111661Y0390729D01*
X0112000Y0385731D02*
X0127220Y0385731D01*
X0127220Y0380732D02*
X0111455Y0380732D01*
X0106457Y0375734D02*
X0131873Y0375734D01*
X0148867Y0375734D02*
X0180867Y0375734D01*
X0176000Y0376333D02*
X0176000Y0382007D01*
X0176000Y0382007D01*
X0176000Y0376333D01*
X0176000Y0380732D02*
X0176000Y0380732D01*
X0175350Y0385833D02*
X0169500Y0385833D01*
X0175350Y0385833D01*
X0175350Y0385833D01*
X0169500Y0385731D02*
X0156609Y0385731D01*
X0153520Y0380732D02*
X0169835Y0380732D01*
X0169779Y0390729D02*
X0161607Y0390729D01*
X0166606Y0395728D02*
X0175350Y0395728D01*
X0197555Y0400726D02*
X0203695Y0400726D01*
X0199625Y0405725D02*
X0197555Y0405725D01*
X0196520Y0410723D02*
X0198594Y0410723D01*
X0199498Y0415722D02*
X0192453Y0415722D01*
X0186986Y0420720D02*
X0203343Y0420720D01*
X0218657Y0420720D02*
X0352754Y0420720D01*
X0351512Y0415722D02*
X0222502Y0415722D01*
X0223405Y0410723D02*
X0352847Y0410723D01*
X0344243Y0395728D02*
X0471000Y0395728D01*
X0471000Y0400726D02*
X0458305Y0400726D01*
X0458617Y0400906D02*
X0460927Y0403216D01*
X0462560Y0406045D01*
X0463405Y0409200D01*
X0463405Y0412467D01*
X0462560Y0415622D01*
X0460927Y0418450D01*
X0458617Y0420760D01*
X0455788Y0422393D01*
X0452633Y0423239D01*
X0449367Y0423239D01*
X0446212Y0422393D01*
X0443383Y0420760D01*
X0441073Y0418450D01*
X0439440Y0415622D01*
X0438594Y0412467D01*
X0438594Y0409200D01*
X0439440Y0406045D01*
X0441073Y0403216D01*
X0443383Y0400906D01*
X0446212Y0399273D01*
X0449367Y0398428D01*
X0452633Y0398428D01*
X0455788Y0399273D01*
X0458617Y0400906D01*
X0462375Y0405725D02*
X0471000Y0405725D01*
X0471000Y0410723D02*
X0463405Y0410723D01*
X0462502Y0415722D02*
X0466112Y0415722D01*
X0461113Y0420720D02*
X0458657Y0420720D01*
X0443343Y0420720D02*
X0419246Y0420720D01*
X0411000Y0415833D02*
X0401000Y0415833D01*
X0392750Y0415722D02*
X0379250Y0415722D01*
X0377557Y0410723D02*
X0394443Y0410723D01*
X0394220Y0420720D02*
X0377780Y0420720D01*
X0419153Y0410723D02*
X0438594Y0410723D01*
X0439498Y0415722D02*
X0420488Y0415722D01*
X0439625Y0405725D02*
X0301927Y0405725D01*
X0306925Y0400726D02*
X0443695Y0400726D01*
X0471000Y0390729D02*
X0345488Y0390729D01*
X0344156Y0385731D02*
X0471000Y0385731D01*
X0471000Y0380732D02*
X0384241Y0380732D01*
X0385488Y0375734D02*
X0471000Y0375734D01*
X0471000Y0370735D02*
X0384158Y0370735D01*
X0376721Y0365737D02*
X0471000Y0365737D01*
X0471000Y0360738D02*
X0387726Y0360738D01*
X0389224Y0355740D02*
X0471000Y0355740D01*
X0471000Y0350741D02*
X0387723Y0350741D01*
X0389224Y0345743D02*
X0471000Y0345743D01*
X0471000Y0340744D02*
X0387720Y0340744D01*
X0389224Y0335745D02*
X0471000Y0335745D01*
X0471000Y0330747D02*
X0387717Y0330747D01*
X0389224Y0325748D02*
X0471000Y0325748D01*
X0471000Y0320750D02*
X0462750Y0320750D01*
X0462994Y0320506D02*
X0460673Y0322827D01*
X0457641Y0324083D01*
X0449159Y0324083D01*
X0446127Y0322827D01*
X0443806Y0320506D01*
X0442550Y0317474D01*
X0442550Y0314192D01*
X0443806Y0311160D01*
X0445732Y0309235D01*
X0445583Y0309030D01*
X0445147Y0308175D01*
X0444850Y0307262D01*
X0444700Y0306313D01*
X0444700Y0305833D01*
X0444700Y0305353D01*
X0444833Y0304516D01*
X0442887Y0305322D01*
X0439113Y0305322D01*
X0435625Y0303877D01*
X0432956Y0301208D01*
X0431512Y0297721D01*
X0431512Y0293946D01*
X0432956Y0290459D01*
X0435625Y0287790D01*
X0439113Y0286345D01*
X0442887Y0286345D01*
X0446119Y0287684D01*
X0448918Y0287684D01*
X0449159Y0287584D01*
X0457641Y0287584D01*
X0460673Y0288840D01*
X0462994Y0291160D01*
X0464250Y0294192D01*
X0464250Y0297474D01*
X0462994Y0300506D01*
X0461068Y0302432D01*
X0461217Y0302636D01*
X0461653Y0303492D01*
X0461950Y0304405D01*
X0462100Y0305353D01*
X0462100Y0305833D01*
X0456000Y0305833D01*
X0456000Y0305833D01*
X0444700Y0305833D01*
X0456000Y0305833D01*
X0456000Y0305833D01*
X0462100Y0305833D01*
X0462100Y0306313D01*
X0461950Y0307262D01*
X0461653Y0308175D01*
X0461217Y0309030D01*
X0461068Y0309235D01*
X0462994Y0311160D01*
X0464250Y0314192D01*
X0464250Y0317474D01*
X0462994Y0320506D01*
X0464250Y0315751D02*
X0471000Y0315751D01*
X0471000Y0310753D02*
X0462586Y0310753D01*
X0462100Y0305754D02*
X0471000Y0305754D01*
X0471000Y0300756D02*
X0462744Y0300756D01*
X0464250Y0295757D02*
X0471000Y0295757D01*
X0471000Y0290759D02*
X0462592Y0290759D01*
X0456000Y0295833D02*
X0441000Y0295833D01*
X0431512Y0295757D02*
X0396894Y0295757D01*
X0401893Y0290759D02*
X0432832Y0290759D01*
X0432769Y0300756D02*
X0391896Y0300756D01*
X0389224Y0305754D02*
X0444700Y0305754D01*
X0444214Y0310753D02*
X0387711Y0310753D01*
X0389224Y0315751D02*
X0442550Y0315751D01*
X0444050Y0320750D02*
X0387714Y0320750D01*
X0406891Y0285760D02*
X0471000Y0285760D01*
X0471000Y0280762D02*
X0408650Y0280762D01*
X0408650Y0275763D02*
X0471000Y0275763D01*
X0471000Y0270765D02*
X0408650Y0270765D01*
X0408650Y0265766D02*
X0471000Y0265766D01*
X0471000Y0260768D02*
X0408650Y0260768D01*
X0408650Y0255769D02*
X0471000Y0255769D01*
X0471000Y0250771D02*
X0408650Y0250771D01*
X0408650Y0245772D02*
X0471000Y0245772D01*
X0471000Y0240774D02*
X0408650Y0240774D01*
X0424223Y0235775D02*
X0471000Y0235775D01*
X0471000Y0230777D02*
X0425488Y0230777D01*
X0424176Y0225778D02*
X0457778Y0225778D01*
X0466771Y0200786D02*
X0471000Y0200786D01*
X0471000Y0195787D02*
X0462650Y0195787D01*
X0461277Y0190789D02*
X0471000Y0190789D01*
X0471000Y0185790D02*
X0462650Y0185790D01*
X0461191Y0180792D02*
X0471000Y0180792D01*
X0471000Y0175793D02*
X0460500Y0175793D01*
X0458111Y0170795D02*
X0471000Y0170795D01*
X0471000Y0165796D02*
X0401781Y0165796D01*
X0398650Y0160798D02*
X0471000Y0160798D01*
X0471000Y0155799D02*
X0398650Y0155799D01*
X0396785Y0150801D02*
X0471000Y0150801D01*
X0471000Y0145802D02*
X0397698Y0145802D01*
X0399250Y0140804D02*
X0471000Y0140804D01*
X0471000Y0135805D02*
X0397638Y0135805D01*
X0384210Y0130807D02*
X0471000Y0130807D01*
X0471000Y0125808D02*
X0385488Y0125808D01*
X0384189Y0120810D02*
X0471000Y0120810D01*
X0471000Y0115811D02*
X0397689Y0115811D01*
X0399250Y0110812D02*
X0471000Y0110812D01*
X0471000Y0105814D02*
X0397647Y0105814D01*
X0391800Y0100815D02*
X0471000Y0100815D01*
X0471000Y0095817D02*
X0386802Y0095817D01*
X0374224Y0090818D02*
X0471000Y0090818D01*
X0471000Y0085820D02*
X0372618Y0085820D01*
X0359353Y0095817D02*
X0343692Y0095817D01*
X0344224Y0100815D02*
X0357776Y0100815D01*
X0359350Y0105814D02*
X0342650Y0105814D01*
X0344224Y0110812D02*
X0359925Y0110812D01*
X0362516Y0115811D02*
X0342653Y0115811D01*
X0329347Y0115811D02*
X0266840Y0115811D01*
X0261842Y0120810D02*
X0367811Y0120810D01*
X0366000Y0116908D02*
X0366000Y0110833D01*
X0366000Y0116908D01*
X0366000Y0115811D02*
X0366000Y0115811D01*
X0366000Y0110833D02*
X0366000Y0110833D01*
X0366512Y0125808D02*
X0086000Y0125808D01*
X0086000Y0130807D02*
X0367790Y0130807D01*
X0383650Y0115811D02*
X0384311Y0115811D01*
X0327776Y0110812D02*
X0272667Y0110812D01*
X0276335Y0105814D02*
X0279314Y0105814D01*
X0277750Y0100815D02*
X0276335Y0100815D01*
X0276335Y0095817D02*
X0278350Y0095817D01*
X0275167Y0090818D02*
X0273975Y0090818D01*
X0290333Y0084348D02*
X0290333Y0084348D01*
X0291805Y0085820D02*
X0319461Y0085820D01*
X0314463Y0080821D02*
X0286806Y0080821D01*
X0281808Y0075823D02*
X0309464Y0075823D01*
X0304466Y0070824D02*
X0273999Y0070824D01*
X0257395Y0090818D02*
X0241833Y0090818D01*
X0236965Y0095817D02*
X0255035Y0095817D01*
X0255035Y0100815D02*
X0236965Y0100815D01*
X0236965Y0105814D02*
X0255035Y0105814D01*
X0292686Y0105814D02*
X0309314Y0105814D01*
X0307750Y0100815D02*
X0294250Y0100815D01*
X0293650Y0095817D02*
X0309350Y0095817D01*
X0324460Y0090818D02*
X0293650Y0090818D01*
X0327516Y0070824D02*
X0439557Y0070824D01*
X0438594Y0065826D02*
X0322518Y0065826D01*
X0317519Y0060827D02*
X0439566Y0060827D01*
X0443517Y0055829D02*
X0312521Y0055829D01*
X0332515Y0075823D02*
X0443491Y0075823D01*
X0443889Y0170795D02*
X0428111Y0170795D01*
X0430500Y0175793D02*
X0441500Y0175793D01*
X0451000Y0175793D02*
X0451000Y0175793D01*
X0451000Y0170795D02*
X0451000Y0170795D01*
X0421000Y0170795D02*
X0421000Y0170795D01*
X0421000Y0175793D02*
X0421000Y0175793D01*
X0413889Y0170795D02*
X0406779Y0170795D01*
X0284330Y0170795D02*
X0277670Y0170795D01*
X0277972Y0170492D02*
X0275659Y0172806D01*
X0272636Y0174058D01*
X0269364Y0174058D01*
X0266341Y0172806D01*
X0266000Y0172464D01*
X0265659Y0172806D01*
X0262636Y0174058D01*
X0259364Y0174058D01*
X0256341Y0172806D01*
X0256000Y0172464D01*
X0255659Y0172806D01*
X0252636Y0174058D01*
X0249364Y0174058D01*
X0246341Y0172806D01*
X0246000Y0172464D01*
X0245659Y0172806D01*
X0242636Y0174058D01*
X0239364Y0174058D01*
X0236341Y0172806D01*
X0236000Y0172464D01*
X0235659Y0172806D01*
X0232636Y0174058D01*
X0229364Y0174058D01*
X0226341Y0172806D01*
X0226000Y0172464D01*
X0225659Y0172806D01*
X0222636Y0174058D01*
X0219364Y0174058D01*
X0216341Y0172806D01*
X0216000Y0172464D01*
X0215659Y0172806D01*
X0212636Y0174058D01*
X0209364Y0174058D01*
X0206341Y0172806D01*
X0206000Y0172464D01*
X0205659Y0172806D01*
X0202636Y0174058D01*
X0199364Y0174058D01*
X0196341Y0172806D01*
X0194028Y0170492D01*
X0192776Y0167469D01*
X0192776Y0164197D01*
X0194028Y0161175D01*
X0196341Y0158861D01*
X0199364Y0157609D01*
X0202636Y0157609D01*
X0205659Y0158861D01*
X0206000Y0159202D01*
X0206341Y0158861D01*
X0209364Y0157609D01*
X0212636Y0157609D01*
X0215659Y0158861D01*
X0216000Y0159202D01*
X0216341Y0158861D01*
X0219364Y0157609D01*
X0222636Y0157609D01*
X0225659Y0158861D01*
X0226000Y0159202D01*
X0226341Y0158861D01*
X0229364Y0157609D01*
X0232636Y0157609D01*
X0235659Y0158861D01*
X0236000Y0159202D01*
X0236341Y0158861D01*
X0239364Y0157609D01*
X0242636Y0157609D01*
X0245659Y0158861D01*
X0246000Y0159202D01*
X0246341Y0158861D01*
X0249364Y0157609D01*
X0252636Y0157609D01*
X0255659Y0158861D01*
X0256000Y0159202D01*
X0256341Y0158861D01*
X0259364Y0157609D01*
X0262636Y0157609D01*
X0265659Y0158861D01*
X0266000Y0159202D01*
X0266341Y0158861D01*
X0269364Y0157609D01*
X0272636Y0157609D01*
X0275659Y0158861D01*
X0277972Y0161175D01*
X0279224Y0164197D01*
X0279224Y0167469D01*
X0277972Y0170492D01*
X0279224Y0165796D02*
X0282776Y0165796D01*
X0284405Y0160798D02*
X0277595Y0160798D01*
X0194405Y0160798D02*
X0187595Y0160798D01*
X0189224Y0165796D02*
X0192776Y0165796D01*
X0194330Y0170795D02*
X0187670Y0170795D01*
X0094557Y0070824D02*
X0086000Y0070824D01*
X0086000Y0065826D02*
X0093594Y0065826D01*
X0094566Y0060827D02*
X0086000Y0060827D01*
X0086000Y0055829D02*
X0098517Y0055829D01*
X0086000Y0050830D02*
X0219390Y0050830D01*
X0174461Y0350741D02*
X0172539Y0350741D01*
X0172726Y0360738D02*
X0174274Y0360738D01*
X0138921Y0400726D02*
X0086000Y0400726D01*
X0086000Y0395728D02*
X0095338Y0395728D01*
X0090339Y0390729D02*
X0086000Y0390729D01*
X0086000Y0385731D02*
X0090000Y0385731D01*
X0090545Y0380732D02*
X0086000Y0380732D01*
X0086000Y0405725D02*
X0143920Y0405725D01*
X0148919Y0410723D02*
X0086000Y0410723D01*
X0086000Y0415722D02*
X0153917Y0415722D01*
X0159384Y0420720D02*
X0086000Y0420720D01*
X0222375Y0405725D02*
X0255073Y0405725D01*
X0254515Y0405166D02*
X0254515Y0405166D01*
X0291000Y0385833D02*
X0291000Y0385833D01*
X0291000Y0376333D01*
X0291000Y0385833D01*
X0291000Y0385731D02*
X0291000Y0385731D01*
X0291000Y0380732D02*
X0291000Y0380732D01*
X0288650Y0375734D02*
X0295867Y0375734D01*
X0295084Y0370735D02*
X0288650Y0370735D01*
X0288650Y0365737D02*
X0293350Y0365737D01*
X0306133Y0375734D02*
X0310082Y0375734D01*
X0309492Y0380732D02*
X0315081Y0380732D01*
X0320079Y0385731D02*
X0309650Y0385731D01*
X0309577Y0390729D02*
X0325078Y0390729D01*
X0327757Y0395728D02*
X0308650Y0395728D01*
X0331718Y0375734D02*
X0365082Y0375734D01*
X0367759Y0380732D02*
X0336717Y0380732D01*
X0326720Y0370735D02*
X0360084Y0370735D01*
X0355085Y0365737D02*
X0321721Y0365737D01*
X0347726Y0360738D02*
X0350087Y0360738D01*
X0348350Y0350741D02*
X0347539Y0350741D01*
D20*
X0356000Y0355833D02*
X0376000Y0375833D01*
X0356000Y0355833D02*
X0356000Y0205833D01*
X0371000Y0205833D01*
X0371000Y0195833D02*
X0361000Y0195833D01*
X0356000Y0190833D01*
X0356000Y0180833D01*
X0361000Y0175833D01*
X0386000Y0175833D01*
X0406000Y0195833D01*
X0421000Y0195833D01*
X0451000Y0195833D01*
X0451000Y0185833D02*
X0421000Y0185833D01*
X0411000Y0185833D01*
X0391000Y0165833D01*
X0391000Y0155833D01*
X0386000Y0150833D01*
X0381000Y0150833D01*
X0391000Y0140833D01*
X0376000Y0125833D02*
X0376000Y0100833D01*
X0381000Y0100833D01*
X0391000Y0110833D01*
X0376000Y0100833D02*
X0366000Y0100833D01*
X0336000Y0100833D02*
X0316000Y0100833D01*
X0286000Y0100833D02*
X0286000Y0090833D01*
X0276000Y0080833D01*
X0241000Y0080833D01*
X0226000Y0095833D01*
X0226315Y0096148D01*
X0226315Y0100518D01*
X0256000Y0115833D02*
X0266000Y0105833D01*
X0256000Y0115833D02*
X0194130Y0115833D01*
X0186000Y0107703D01*
X0186000Y0068333D02*
X0191000Y0063333D01*
X0111000Y0140833D02*
X0111000Y0215833D01*
X0231000Y0335833D01*
X0231000Y0355833D01*
X0221000Y0355833D02*
X0221000Y0390833D01*
X0256000Y0395833D02*
X0256000Y0380833D01*
X0261000Y0375833D01*
X0261000Y0340833D01*
X0151000Y0230833D01*
X0151000Y0165833D01*
X0151000Y0150833D01*
X0381000Y0295833D02*
X0386000Y0295833D01*
X0401000Y0280833D01*
X0401000Y0205833D01*
X0421000Y0205833D01*
X0421000Y0215833D02*
X0416000Y0220833D01*
X0416000Y0230833D01*
X0421000Y0215833D02*
X0451000Y0215833D01*
X0451000Y0205833D02*
X0461000Y0205833D01*
X0466000Y0210833D01*
X0466000Y0220833D01*
X0451000Y0175833D02*
X0421000Y0175833D01*
X0301000Y0355833D02*
X0301000Y0365833D01*
X0311000Y0365833D01*
X0336000Y0390833D01*
X0301000Y0395833D02*
X0301000Y0385833D01*
X0301000Y0395833D02*
X0296000Y0400833D01*
X0261000Y0400833D01*
X0256000Y0395833D01*
X0271000Y0385833D02*
X0271000Y0355833D01*
X0281000Y0355833D02*
X0281000Y0385833D01*
X0361000Y0415833D02*
X0371000Y0415833D01*
D21*
X0361000Y0415833D03*
X0336000Y0390833D03*
X0376000Y0375833D03*
X0411000Y0415833D03*
X0291000Y0370833D03*
X0221000Y0390833D03*
X0441000Y0295833D03*
X0416000Y0230833D03*
X0466000Y0220833D03*
X0381000Y0150833D03*
X0376000Y0125833D03*
X0151000Y0150833D03*
X0111000Y0140833D03*
D22*
X0186000Y0385833D02*
X0186000Y0400833D01*
X0486000Y0315833D02*
X0491000Y0320833D01*
X0511000Y0320833D01*
X0548000Y0283833D01*
X0566000Y0283833D01*
X0566000Y0305833D02*
X0596000Y0305833D01*
X0596000Y0255833D01*
X0586000Y0255833D01*
X0536000Y0255833D01*
X0506000Y0255833D02*
X0506000Y0265833D01*
X0491000Y0280833D01*
X0491000Y0290833D01*
X0486000Y0295833D01*
X0566000Y0327833D02*
X0566000Y0355833D01*
X0586000Y0375833D01*
X0606000Y0365833D02*
X0616000Y0355833D01*
X0616000Y0195833D01*
X0606000Y0185833D01*
X0606000Y0155833D01*
X0591000Y0140833D01*
X0536000Y0140833D01*
X0501000Y0175833D01*
X0586000Y0175833D02*
X0586000Y0255833D01*
X0606000Y0365833D02*
X0606000Y0415833D01*
X0521000Y0415833D01*
X0501000Y0395833D01*
X0501000Y0375833D01*
D23*
X0186000Y0400833D02*
X0186000Y0405833D01*
X0181000Y0410833D01*
X0165370Y0410833D01*
X0140370Y0385833D01*
M02*
