G75*
%MOIN*%
%OFA0B0*%
%FSLAX25Y25*%
%IPPOS*%
%LPD*%
%AMOC8*
5,1,8,0,0,1.08239X$1,22.5*
%
%ADD10C,0.12611*%
%ADD11C,0.06000*%
%ADD12OC8,0.06000*%
%ADD13C,0.09050*%
%ADD14C,0.17000*%
%ADD15C,0.05950*%
%ADD16R,0.05950X0.05950*%
%ADD17OC8,0.15800*%
%ADD18C,0.06800*%
%ADD19R,0.10800X0.10800*%
%ADD20C,0.08477*%
D10*
X0106000Y0065833D03*
X0451000Y0065833D03*
X0656000Y0060833D03*
X0666000Y0405833D03*
X0451000Y0410833D03*
X0211000Y0410833D03*
D11*
X0450800Y0315833D02*
X0456000Y0315833D01*
X0456000Y0305833D02*
X0450800Y0305833D01*
X0450800Y0295833D02*
X0456000Y0295833D01*
X0486000Y0295833D02*
X0491200Y0295833D01*
X0491200Y0305833D02*
X0486000Y0305833D01*
X0486000Y0315833D02*
X0491200Y0315833D01*
D12*
X0506000Y0255833D03*
X0536000Y0255833D03*
X0391000Y0140833D03*
X0391000Y0110833D03*
X0316000Y0100833D03*
X0286000Y0100833D03*
X0371000Y0415833D03*
X0401000Y0415833D03*
D13*
X0561875Y0327833D02*
X0570125Y0327833D01*
X0570125Y0305833D02*
X0561875Y0305833D01*
X0561875Y0283833D02*
X0570125Y0283833D01*
D14*
X0646000Y0305833D03*
D15*
X0381000Y0305833D03*
X0371000Y0305833D03*
X0371000Y0295833D03*
X0381000Y0295833D03*
X0381000Y0285833D03*
X0371000Y0285833D03*
X0371000Y0275833D03*
X0381000Y0275833D03*
X0381000Y0265833D03*
X0371000Y0265833D03*
X0371000Y0255833D03*
X0381000Y0255833D03*
X0381000Y0245833D03*
X0371000Y0245833D03*
X0371000Y0235833D03*
X0381000Y0235833D03*
X0381000Y0225833D03*
X0371000Y0225833D03*
X0371000Y0215833D03*
X0381000Y0215833D03*
X0381000Y0205833D03*
X0371000Y0205833D03*
X0371000Y0195833D03*
X0381000Y0195833D03*
X0381000Y0185833D03*
X0371000Y0185833D03*
X0361000Y0165833D03*
X0351000Y0165833D03*
X0341000Y0165833D03*
X0331000Y0165833D03*
X0321000Y0165833D03*
X0311000Y0165833D03*
X0301000Y0165833D03*
X0291000Y0165833D03*
X0271000Y0165833D03*
X0261000Y0165833D03*
X0251000Y0165833D03*
X0241000Y0165833D03*
X0231000Y0165833D03*
X0221000Y0165833D03*
X0211000Y0165833D03*
X0201000Y0165833D03*
X0181000Y0165833D03*
X0171000Y0165833D03*
X0161000Y0165833D03*
X0151000Y0165833D03*
X0141000Y0165833D03*
X0131000Y0165833D03*
X0336000Y0110833D03*
X0336000Y0100833D03*
X0366000Y0100833D03*
X0366000Y0090833D03*
X0366000Y0110833D03*
X0371000Y0315833D03*
X0381000Y0315833D03*
X0381000Y0325833D03*
X0371000Y0325833D03*
X0371000Y0335833D03*
X0381000Y0335833D03*
X0381000Y0345833D03*
X0371000Y0345833D03*
X0371000Y0355833D03*
X0381000Y0355833D03*
X0341000Y0355833D03*
X0331000Y0355833D03*
X0321000Y0355833D03*
X0311000Y0355833D03*
X0301000Y0355833D03*
X0291000Y0355833D03*
X0281000Y0355833D03*
X0271000Y0355833D03*
X0251000Y0355833D03*
X0241000Y0355833D03*
X0231000Y0355833D03*
X0221000Y0355833D03*
X0211000Y0355833D03*
X0201000Y0355833D03*
X0191000Y0355833D03*
X0181000Y0355833D03*
X0166000Y0355833D03*
X0156000Y0355833D03*
X0146000Y0355833D03*
X0136000Y0355833D03*
X0126000Y0355833D03*
X0116000Y0355833D03*
X0106000Y0355833D03*
X0096000Y0355833D03*
D16*
X0336000Y0090833D03*
D17*
X0186000Y0107703D03*
X0186000Y0068333D03*
X0501000Y0175833D03*
X0540370Y0175833D03*
X0586000Y0175833D03*
X0625370Y0175833D03*
X0625370Y0375833D03*
X0586000Y0375833D03*
X0540370Y0375833D03*
X0501000Y0375833D03*
X0140370Y0385833D03*
X0101000Y0385833D03*
D18*
X0176000Y0388833D02*
X0176000Y0382833D01*
X0186000Y0382833D02*
X0186000Y0388833D01*
X0196000Y0388833D02*
X0196000Y0382833D01*
X0206000Y0382833D02*
X0206000Y0388833D01*
X0271000Y0388833D02*
X0271000Y0382833D01*
X0281000Y0382833D02*
X0281000Y0388833D01*
X0291000Y0388833D02*
X0291000Y0382833D01*
X0301000Y0382833D02*
X0301000Y0388833D01*
X0418000Y0215833D02*
X0424000Y0215833D01*
X0424000Y0205833D02*
X0418000Y0205833D01*
X0418000Y0195833D02*
X0424000Y0195833D01*
X0424000Y0185833D02*
X0418000Y0185833D01*
X0418000Y0175833D02*
X0424000Y0175833D01*
X0448000Y0175833D02*
X0454000Y0175833D01*
X0454000Y0185833D02*
X0448000Y0185833D01*
X0448000Y0195833D02*
X0454000Y0195833D01*
X0454000Y0205833D02*
X0448000Y0205833D01*
X0448000Y0215833D02*
X0454000Y0215833D01*
D19*
X0265685Y0100518D03*
X0226315Y0100518D03*
X0226315Y0061148D03*
X0265685Y0061148D03*
D20*
X0376000Y0125833D03*
X0381000Y0150833D03*
X0466000Y0220833D03*
X0416000Y0230833D03*
X0441000Y0295833D03*
X0376000Y0375833D03*
X0336000Y0390833D03*
X0361000Y0415833D03*
X0411000Y0415833D03*
X0291000Y0370833D03*
X0221000Y0390833D03*
X0151000Y0150833D03*
X0111000Y0140833D03*
M02*
